<svg xmlns="http://www.w3.org/2000/svg" width="140" height="140" viewBox="0 0 140 140" fill="none">
    <ellipse cx="70.0003" cy="52.5" rx="23.3333" ry="23.3333" fill="#33363F"/>
    <circle cx="99.167" cy="52.5" r="17.5" fill="#33363F"/>
    <circle cx="40.833" cy="52.5" r="17.5" fill="#33363F"/>
    <path fill-rule="evenodd" clip-rule="evenodd" d="M102.483 105H121.396C121.987 105 122.446 104.504 122.361 103.918C121.591 98.6388 117.221 75.8333 99.1673 75.8333C93.9985 75.8333 89.9513 77.7028 86.7891 80.495C95.5842 86.2012 100.132 96.193 102.483 105Z" fill="#33363F"/>
    <path fill-rule="evenodd" clip-rule="evenodd" d="M53.2119 80.4949C50.0497 77.7027 46.0025 75.8333 40.8337 75.8333C22.7802 75.8333 18.41 98.6388 17.6401 103.918C17.5548 104.504 18.0137 105 18.6053 105H37.5177C39.8691 96.193 44.4167 86.2011 53.2119 80.4949Z" fill="#33363F"/>
    <path d="M69.9997 81.6667C96.2404 81.6667 98.8728 109.997 99.1369 115.681C99.1625 116.232 98.7186 116.667 98.1663 116.667H41.833C41.2807 116.667 40.8368 116.232 40.8625 115.681C41.1265 109.997 43.759 81.6667 69.9997 81.6667Z" fill="#33363F"/>
</svg>