<svg xmlns="http://www.w3.org/2000/svg" width="80" height="80" viewBox="0 0 80 80" fill="none">
  <g clip-path="url(#clip0_197_4161)">
    <path d="M36.9346 4.76416C33.6941 4.76416 30.5863 6.05144 28.2949 8.3428C26.0036 10.6342 24.7163 13.7419 24.7163 16.9824V21.924C25.1301 21.5388 25.6228 21.2483 26.1601 21.0725C26.6974 20.8967 27.2665 20.8399 27.828 20.906V20.2971C27.8282 20.1828 27.8518 20.0698 27.8975 19.9651C27.9432 19.8604 28.0099 19.7663 28.0936 19.6885C28.1772 19.6107 28.276 19.5509 28.3837 19.5129C28.4915 19.4749 28.6059 19.4595 28.7198 19.4676C33.4441 19.8064 38.2531 18.3057 41.8874 15.9308C42.0518 15.8237 42.2487 15.7782 42.4435 15.8021C42.6382 15.8261 42.8182 15.9181 42.9518 16.0618C46.0603 19.4021 46.0411 19.2726 46.0411 19.7089V20.9044C46.5948 20.8096 47.1628 20.8422 47.7019 20.9998C48.2411 21.1573 48.7373 21.4357 49.1528 21.8138V16.984C49.153 15.3793 48.8371 13.7904 48.2232 12.3078C47.6093 10.8252 46.7093 9.4781 45.5747 8.34336C44.4401 7.20863 43.0931 6.3085 41.6106 5.69437C40.1281 5.08025 38.5392 4.76416 36.9346 4.76416Z" fill="#707487"/>
    <path d="M27.5752 16.984C27.5754 13.9911 28.6741 11.1024 30.6629 8.8658C32.6517 6.62925 35.3923 5.20045 38.3646 4.85046C37.8872 4.79391 37.407 4.76509 36.9262 4.76416C33.6858 4.76416 30.578 6.05144 28.2866 8.3428C25.9953 10.6342 24.708 13.7419 24.708 16.9824V21.924C25.091 21.5685 25.5413 21.2933 26.0324 21.1146C26.5234 20.9359 27.0453 20.8574 27.5672 20.8836V16.984H27.5752Z" fill="#5B5D6E"/>
    <path d="M46.0283 20.457V27.1695C46.0283 27.243 46.0283 27.3149 46.0283 27.3868C48.4064 27.748 50.2683 26.0299 50.2683 23.9187C50.2683 21.8075 48.3953 20.107 46.0283 20.457Z" fill="#F0A479"/>
    <path d="M48.9051 21.1697C48.4994 20.8612 48.035 20.6389 47.5403 20.5163C47.0456 20.3937 46.5311 20.3735 46.0283 20.4569V27.1694C46.0283 27.2429 46.0283 27.3148 46.0283 27.3867C46.53 27.4723 47.0439 27.4547 47.5385 27.3349C48.0332 27.2151 48.4982 26.9956 48.9051 26.6899V21.1697Z" fill="#E59770"/>
    <path d="M27.8552 27.1886V20.457C25.7775 20.1805 23.6104 21.7723 23.6104 23.9315C23.6104 26.0443 25.4723 27.7672 27.86 27.4092C27.8584 27.3293 27.8552 27.2622 27.8552 27.1886Z" fill="#F0A479"/>
    <path d="M27.8552 26.722C27.4238 26.3956 27.0742 25.9735 26.8337 25.489C26.5933 25.0045 26.4686 24.4708 26.4695 23.9299C26.479 23.4076 26.6089 22.8946 26.8493 22.4308C27.0896 21.967 27.4339 21.565 27.8552 21.2561V20.457C25.7775 20.1805 23.6104 21.7723 23.6104 23.9315C23.6104 26.0443 25.4723 27.7672 27.86 27.4092C27.86 27.3357 27.86 27.2638 27.86 27.1902L27.8552 26.722Z" fill="#E59770"/>
    <path d="M37.064 35.7149C35.2514 35.7351 33.4713 35.2324 31.937 34.267V39.2725L37.0433 45.5742L42.1479 39.2725V34.1311C40.6542 35.1645 38.8804 35.7171 37.064 35.7149Z" fill="#F0A479"/>
    <path d="M34.8521 35.4801C33.8176 35.2505 32.8311 34.8421 31.937 34.2734V39.279L34.8521 42.8781V35.4801Z" fill="#E59770"/>
    <path d="M55.654 44.0751L42.1476 38.8442L37.043 45.1459L31.9367 38.8442L18.4447 44.0751C18.4447 44.0751 13.4487 46.1288 13.4487 51.8232V74.1645C13.4487 74.6061 13.6242 75.0297 13.9365 75.342C14.2488 75.6543 14.6724 75.8298 15.1141 75.8298H58.9846C59.2033 75.8298 59.4199 75.7867 59.6219 75.703C59.824 75.6193 60.0076 75.4967 60.1622 75.342C60.3168 75.1874 60.4395 75.0038 60.5232 74.8018C60.6069 74.5997 60.65 74.3831 60.65 74.1645V51.8232C60.65 46.1288 55.654 44.0751 55.654 44.0751Z" fill="#C08200"/>
    <path d="M16.3017 74.1644V50.2506C16.2853 48.9965 16.5553 47.7552 17.0913 46.6214C17.6272 45.4875 18.4149 44.4909 19.3943 43.7075L18.4481 44.0751C18.4481 44.0751 13.4521 46.1288 13.4521 51.8232V74.1644C13.4521 74.6061 13.6276 75.0297 13.9399 75.342C14.2522 75.6543 14.6758 75.8297 15.1175 75.8297H17.9639C17.5229 75.8285 17.1004 75.6525 16.7888 75.3404C16.4773 75.0283 16.3022 74.6054 16.3017 74.1644Z" fill="#B27200"/>
    <path d="M42.9514 15.6319C42.8177 15.4884 42.6375 15.3967 42.4428 15.373C42.2481 15.3494 42.0512 15.3952 41.887 15.5024C38.2511 17.8774 33.4437 19.3781 28.7194 19.0393C28.6055 19.0311 28.4911 19.0466 28.3834 19.0846C28.2756 19.1226 28.1769 19.1823 28.0932 19.2601C28.0096 19.3379 27.9428 19.4321 27.8971 19.5368C27.8514 19.6415 27.8278 19.7545 27.8276 19.8687V27.1693C27.8276 31.8616 31.5035 36.1464 37.0636 36.1464C39.4436 36.1434 41.7252 35.1967 43.4081 33.5138C45.091 31.8309 46.0378 29.5493 46.0407 27.1693V19.279C46.0407 18.8427 46.0599 18.9721 42.9514 15.6319Z" fill="#F0A479"/>
    <path d="M30.6855 27.1695V19.0762C30.029 19.0975 29.3718 19.0852 28.7165 19.0395C28.6026 19.0313 28.4882 19.0468 28.3804 19.0848C28.2727 19.1228 28.1739 19.1825 28.0903 19.2603C28.0066 19.3381 27.9399 19.4323 27.8942 19.537C27.8485 19.6417 27.8249 19.7547 27.8247 19.8689V27.1695C27.8247 31.8618 31.5006 36.1466 37.0607 36.1466C37.4961 36.1463 37.9309 36.1143 38.3616 36.0507C36.2301 35.7362 34.2824 34.6664 32.8735 33.0363C31.4646 31.4061 30.6881 29.3241 30.6855 27.1695Z" fill="#E59770"/>
    <path d="M43.2072 48.3839L47.0253 40.7333L42.1476 38.8442L37.043 45.1459L42.0198 48.6812C42.1142 48.7496 42.2225 48.7966 42.3371 48.8187C42.4516 48.8409 42.5696 48.8377 42.6828 48.8093C42.796 48.781 42.9016 48.7282 42.9922 48.6547C43.0828 48.5812 43.1562 48.4888 43.2072 48.3839Z" fill="#D8DCE5"/>
    <path d="M30.885 48.3839L27.0669 40.7333L31.943 38.8442L37.0493 45.1459L32.0709 48.6812C31.9764 48.7493 31.8683 48.796 31.7539 48.818C31.6395 48.84 31.5217 48.8367 31.4088 48.8084C31.2958 48.7801 31.1904 48.7274 31.0999 48.6541C31.0094 48.5808 30.9361 48.4885 30.885 48.3839Z" fill="#D8DCE5"/>
    <path d="M42.2354 69.6462L38.9575 50.2505H35.133L31.8567 69.6462C31.8385 69.7663 31.8464 69.8889 31.8801 70.0056C31.9138 70.1223 31.9723 70.2304 32.0517 70.3223L36.5762 75.3087C36.6361 75.3736 36.7087 75.4253 36.7896 75.4608C36.8705 75.4962 36.9578 75.5145 37.0461 75.5145C37.1344 75.5145 37.2217 75.4962 37.3026 75.4608C37.3834 75.4253 37.4561 75.3736 37.516 75.3087L42.0405 70.3207C42.119 70.2286 42.177 70.1208 42.2107 70.0045C42.2443 69.8882 42.2527 69.7661 42.2354 69.6462Z" fill="#275050"/>
    <path d="M37.0497 45.1508V45.146L37.0465 45.1492L37.0433 45.146V45.1508L33.4233 47.7223L35.1334 50.297H37.0433H37.0497H38.9579L40.6696 47.7223L37.0497 45.1508Z" fill="#275050"/>
    <path d="M34.9109 70.3208C34.8321 70.2285 34.774 70.1205 34.7403 70.0039C34.7067 69.8873 34.6984 69.7648 34.7159 69.6448L37.9938 50.249H35.133L31.8567 69.6448C31.8385 69.7649 31.8464 69.8875 31.8801 70.0042C31.9138 70.1209 31.9723 70.2289 32.0517 70.3208L36.5762 75.3072C36.6361 75.3721 36.7087 75.4239 36.7896 75.4593C36.8705 75.4947 36.9578 75.513 37.0461 75.513C37.1344 75.513 37.2217 75.4947 37.3026 75.4593C37.3834 75.4239 37.4561 75.3721 37.516 75.3072L38.4749 74.2492L34.9109 70.3208Z" fill="#253A3A"/>
    <path d="M38.4765 46.1639L37.0493 45.1506L33.4214 47.7221L35.1331 50.2968H37.9938L36.5107 48.0594C36.4492 47.9671 36.4261 47.8546 36.4464 47.7456C36.4667 47.6366 36.5288 47.5399 36.6194 47.476L38.4765 46.1639Z" fill="#253A3A"/>
    <path d="M60.6852 60.078C60.8261 60.0782 60.9657 60.0506 61.0959 59.9968C61.2261 59.943 61.3444 59.864 61.444 59.7644C61.5436 59.6647 61.6226 59.5464 61.6764 59.4162C61.7303 59.286 61.7579 59.1465 61.7576 59.0056V51.7514C61.7576 45.4113 56.3238 43.1067 56.0968 43.0108L56.0776 43.0028L43.2553 38.0372V35.031C45.3422 33.4128 46.7085 31.0383 47.059 28.4209C48.0652 28.3539 49.0223 27.9612 49.7855 27.3021C50.2389 26.9118 50.611 26.436 50.8805 25.9018C51.15 25.3677 51.3117 24.7857 51.3562 24.1891C51.4007 23.5924 51.3273 22.9929 51.14 22.4247C50.9528 21.8564 50.6555 21.3306 50.265 20.8773V16.9122C50.265 13.3873 48.8647 10.0068 46.3723 7.51432C43.8798 5.02184 40.4993 3.62158 36.9744 3.62158C33.4495 3.62158 30.0689 5.02184 27.5765 7.51432C25.084 10.0068 23.6837 13.3873 23.6837 16.9122V20.9892C22.9735 21.7793 22.5797 22.8036 22.5778 23.866C22.5768 24.5209 22.7176 25.1682 22.9905 25.7635C23.2633 26.3588 23.6617 26.8881 24.1584 27.3149C24.9213 27.9745 25.8786 28.3673 26.8849 28.4336C27.0585 29.7761 27.5046 31.069 28.1958 32.2329C28.887 33.3968 29.8087 34.4071 30.9044 35.202V38.0372L18.0916 43.0028L18.0724 43.0108C17.8407 43.1067 12.4116 45.4081 12.4116 51.7514V74.0926C12.4129 74.8183 12.7017 75.5139 13.2149 76.0271C13.728 76.5402 14.4236 76.8291 15.1493 76.8303H25.3666C25.651 76.8303 25.9238 76.7173 26.1249 76.5162C26.326 76.3151 26.439 76.0424 26.439 75.7579C26.439 75.4735 26.326 75.2008 26.1249 74.9996C25.9238 74.7985 25.651 74.6855 25.3666 74.6855H23.0588V53.5669C23.0588 53.2825 22.9458 53.0098 22.7447 52.8086C22.5436 52.6075 22.2709 52.4945 21.9864 52.4945C21.702 52.4945 21.4293 52.6075 21.2281 52.8086C21.027 53.0098 20.914 53.2825 20.914 53.5669V74.6855H15.1493C14.9922 74.6851 14.8416 74.6225 14.7305 74.5114C14.6194 74.4003 14.5568 74.2497 14.5564 74.0926V51.7514C14.5564 46.9232 18.6318 45.1045 18.8811 44.9974L26.5797 42.0135L29.9615 48.7915C30.117 49.1046 30.3571 49.368 30.6545 49.5518C30.9519 49.7357 31.2947 49.8327 31.6444 49.8319C32.3316 49.8319 32.696 49.5123 33.1802 49.1655L34.0449 50.4664L30.8357 69.4067V69.4387C30.7963 69.7142 30.8173 69.995 30.8973 70.2616C30.9774 70.5282 31.1145 70.7742 31.2991 70.9825L34.665 74.6855H30.3658C30.0814 74.6855 29.8086 74.7985 29.6075 74.9996C29.4064 75.2008 29.2934 75.4735 29.2934 75.7579C29.2934 76.0424 29.4064 76.3151 29.6075 76.5162C29.8086 76.7173 30.0814 76.8303 30.3658 76.8303H59.0215C59.7472 76.8295 60.4429 76.5407 60.9559 76.0274C61.4689 75.5142 61.7572 74.8183 61.7576 74.0926V64.0112C61.7576 63.7267 61.6447 63.454 61.4435 63.2529C61.2424 63.0518 60.9697 62.9388 60.6852 62.9388C60.4008 62.9388 60.1281 63.0518 59.927 63.2529C59.7258 63.454 59.6129 63.7267 59.6129 64.0112V74.0926C59.6129 74.2496 59.5506 74.4002 59.4398 74.5113C59.3289 74.6225 59.1785 74.6851 59.0215 74.6855H53.2568V53.5669C53.2568 53.2825 53.1438 53.0098 52.9427 52.8086C52.7416 52.6075 52.4688 52.4945 52.1844 52.4945C51.9 52.4945 51.6272 52.6075 51.4261 52.8086C51.225 53.0098 51.112 53.2825 51.112 53.5669V74.6855H39.5027L42.8701 70.9825C43.054 70.7741 43.1906 70.5283 43.2706 70.2621C43.3506 69.9959 43.3721 69.7155 43.3336 69.4403V69.4067L40.1148 50.4664L40.9794 49.1655C41.4589 49.5043 41.8249 49.8319 42.5153 49.8319C42.8644 49.8319 43.2065 49.7345 43.5032 49.5507C43.7999 49.3669 44.0395 49.104 44.195 48.7915L47.5768 42.0135L55.2801 44.9974C55.5598 45.1172 59.6065 46.9392 59.6065 51.7514V59.0056C59.6062 59.147 59.6341 59.2871 59.6883 59.4177C59.7425 59.5484 59.822 59.6669 59.9223 59.7666C60.0226 59.8664 60.1417 59.9452 60.2727 59.9986C60.4036 60.0521 60.5438 60.0791 60.6852 60.078ZM48.3871 25.6831C48.0346 25.9834 47.606 26.1804 47.1485 26.2521V21.4655C47.6069 21.5315 48.0367 21.7278 48.3867 22.0312C48.7368 22.3345 48.9922 22.732 49.1227 23.1764C49.2532 23.6208 49.2533 24.0933 49.1229 24.5377C48.9924 24.9822 48.7371 25.3797 48.3871 25.6831ZM25.8237 16.9122C25.8237 13.9562 26.998 11.1212 29.0883 9.03091C31.1785 6.94066 34.0135 5.76637 36.9696 5.76637C39.9256 5.76637 42.7606 6.94066 44.8509 9.03091C46.9411 11.1212 48.1154 13.9562 48.1154 16.9122V19.4981C47.8003 19.4032 47.4763 19.3405 47.1485 19.3111C47.1485 18.2771 47.1581 18.4769 43.7715 14.8362C43.4653 14.5081 43.0532 14.2985 42.6078 14.2441C42.1623 14.1898 41.712 14.2941 41.3358 14.5389C37.5993 16.9809 33.0428 18.2068 28.8363 17.9047C28.3896 17.8725 27.9458 17.9985 27.5826 18.2606C27.2194 18.5227 26.96 18.9042 26.8498 19.3383C26.5015 19.3807 26.1583 19.4578 25.8253 19.5684V16.9154L25.8237 16.9122ZM24.7178 23.8596C24.7178 22.7121 25.6767 21.7819 26.7954 21.5198V26.2521C26.2194 26.1695 25.6924 25.8823 25.3109 25.4429C24.9293 25.0035 24.7188 24.4415 24.7178 23.8596ZM28.9354 27.0975V20.0543C33.5702 20.3244 38.4191 18.9499 42.3395 16.4391C43.8914 18.1061 44.7368 18.9803 45.0037 19.3159V27.1007C44.9991 29.1953 44.1646 31.2027 42.6831 32.6834C41.2015 34.164 39.1936 34.9973 37.099 35.0006C32.2101 35.0006 28.9354 31.2081 28.9354 27.0975ZM37.099 37.1454C38.4794 37.1452 39.8449 36.8606 41.1105 36.3096V38.3872L37.0782 43.3672L33.0412 38.384V36.3767C34.3322 36.89 35.7097 37.1509 37.099 37.1454ZM28.587 41.2336L31.6236 40.0541L35.52 44.8615L31.7323 47.5513L28.587 41.2336ZM37.0782 74.1565L32.9709 69.6384L36.0746 51.3023H38.0867L41.1904 69.6416L37.0782 74.1565ZM38.4143 49.1495H35.7437L34.9271 47.9189L37.0782 46.3926L39.2326 47.9221L38.4143 49.1495ZM42.4194 47.5513L38.6301 44.8615L42.5249 40.0557L45.5743 41.2336L42.4194 47.5513Z" fill="black"/>
  </g>
  <defs>
    <clipPath id="clip0_197_4161">
      <rect width="79.91" height="79.91" fill="white"/>
    </clipPath>
  </defs>
</svg>