<svg xmlns="http://www.w3.org/2000/svg" width="75" height="75" viewBox="0 0 75 75" fill="none">
    <g clip-path="url(#clip0_197_3439)">
    <path d="M30.452 21.2561L33.837 23.5127C35.4087 24.5608 37.2555 25.1201 39.1446 25.1201C41.0337 25.1201 42.8805 24.5608 44.4522 23.5127L47.8372 21.2561C47.8372 21.2561 52.0117 21.9529 53.2711 25.1173C54.019 16.9409 47.5815 9.66431 39.1446 9.66431C30.7077 9.66431 24.2654 16.9377 25.0149 25.1141C26.2775 21.9497 30.452 21.2561 30.452 21.2561Z" fill="#525252"/>
    <path d="M39.1444 57.9539C41.3889 57.9537 43.5463 57.0851 45.1648 55.53C46.7833 53.9749 47.7375 51.854 47.8275 49.6113L47.4918 49.5506C47.0464 49.4697 46.6435 49.235 46.3535 48.8874C46.0635 48.5398 45.9047 48.1014 45.9048 47.6487V41.5356H32.3841V47.6487C32.3827 48.1003 32.2233 48.5372 31.9333 48.8835C31.6434 49.2297 31.2414 49.4635 30.797 49.5442L30.4614 49.6049C30.5498 51.8488 31.5032 53.9713 33.1219 55.5277C34.7406 57.0841 36.8989 57.9536 39.1444 57.9539Z" fill="#FAC7B7"/>
    <path d="M52.5808 28.9802L53.0491 26.6947C53.1556 26.1725 53.2335 25.6448 53.2825 25.1141C52.0199 21.9497 47.8486 21.2529 47.8486 21.2529L44.4524 23.5095C42.8807 24.5576 41.0339 25.1169 39.1448 25.1169C37.2557 25.1169 35.4089 24.5576 33.8372 23.5095L30.4522 21.2561C30.4522 21.2561 26.2777 21.9529 25.0183 25.1173C25.0676 25.6453 25.1455 26.1703 25.2516 26.6899L25.7199 28.9754C25.365 28.9748 25.0146 29.0554 24.6955 29.2108C24.3764 29.3662 24.097 29.5924 23.8786 29.8722C23.6601 30.152 23.5085 30.4779 23.4351 30.8252C23.3618 31.1724 23.3686 31.5319 23.4552 31.8761L24.005 34.0784C24.1923 34.827 24.6243 35.4916 25.2323 35.9667C25.8403 36.4418 26.5896 36.7003 27.3612 36.7011C28.1395 39.2184 29.7034 41.4205 31.8238 42.9847C33.9443 44.5489 36.5098 45.3931 39.1448 45.3937C41.7798 45.3934 44.3455 44.5493 46.4659 42.985C48.5864 41.4208 50.1502 39.2186 50.9283 36.7011C51.7 36.7003 52.4492 36.4418 53.0573 35.9667C53.6653 35.4916 54.0972 34.827 54.2845 34.0784L54.8343 31.8761C54.9198 31.5331 54.9263 31.1752 54.8531 30.8294C54.78 30.4835 54.6292 30.1589 54.4121 29.8799C54.195 29.6009 53.9173 29.375 53.6001 29.2191C53.2828 29.0632 52.9343 28.9815 52.5808 28.9802Z" fill="#FFE7DE"/>
    <path d="M60.0156 51.8264L47.8277 49.6113C47.7377 51.854 46.7836 53.975 45.1651 55.53C43.5466 57.0851 41.3892 57.9537 39.1447 57.9539C36.9002 57.9537 34.7428 57.0851 33.1243 55.53C31.5058 53.975 30.5516 51.854 30.4617 49.6113L18.2738 51.8264C16.2711 52.1909 14.4599 53.2465 13.1556 54.8092C11.8513 56.372 11.1366 58.3429 11.1362 60.3784V70.5094H67.1531V60.3784C67.1527 58.3429 66.4381 56.372 65.1338 54.8092C63.8295 53.2465 62.0182 52.1909 60.0156 51.8264Z" fill="#AA7A63"/>
    <path d="M60.1881 50.8771L47.6646 48.5997C47.4402 48.5617 47.2366 48.4453 47.0903 48.2711C46.9439 48.0969 46.8642 47.8763 46.8655 47.6487V43.8882C49.0534 42.3269 50.7167 40.1393 51.6361 37.6136C52.4901 37.4751 53.2846 37.089 53.9212 36.5032C54.5579 35.9174 55.0087 35.1576 55.2177 34.3181L55.777 32.1238C55.9751 31.3342 55.8743 30.4992 55.494 29.7794C55.1138 29.0596 54.4809 28.5057 53.717 28.2242L53.9887 26.8961C54.1003 26.3474 54.1824 25.7931 54.2348 25.2356C54.2785 24.7668 54.3003 24.299 54.3003 23.8324C54.3022 21.839 53.9055 19.8655 53.1336 18.0277C51.5924 14.3398 48.6591 11.4085 44.9702 9.86971C41.2813 8.33091 37.1345 8.30879 33.4294 9.80815C33.3119 9.856 33.2049 9.92654 33.1147 10.0157C33.0244 10.1049 32.9526 10.211 32.9033 10.3279C32.854 10.4449 32.8283 10.5704 32.8275 10.6973C32.8267 10.8242 32.851 10.95 32.8988 11.0675C32.9467 11.1851 33.0172 11.292 33.1064 11.3823C33.1956 11.4726 33.3017 11.5444 33.4186 11.5937C33.5356 11.6429 33.6611 11.6687 33.788 11.6695C33.9149 11.6702 34.0407 11.646 34.1582 11.5981C36.0397 10.8347 38.0715 10.5143 40.0966 10.6617C42.1217 10.8091 44.0858 11.4204 45.8369 12.4483C47.5879 13.4762 49.0791 14.8931 50.195 16.5894C51.3109 18.2857 52.0216 20.216 52.2722 22.231C50.4231 20.7255 48.1313 20.3227 47.9954 20.3003L47.6182 20.238L43.9168 22.7056C42.5034 23.6474 40.843 24.1499 39.1446 24.1499C37.4462 24.1499 35.7857 23.6474 34.3724 22.7056L30.6709 20.238L30.2937 20.3003C30.1579 20.3227 27.8645 20.7255 26.0154 22.2326C26.2933 19.9556 27.164 17.7914 28.5405 15.9564C28.619 15.8567 28.6771 15.7426 28.7115 15.6204C28.7458 15.4983 28.7558 15.3706 28.7408 15.2446C28.7258 15.1186 28.6862 14.9967 28.6241 14.8861C28.5621 14.7754 28.4788 14.678 28.3791 14.5996C28.2794 14.5211 28.1652 14.463 28.0431 14.4286C27.9209 14.3942 27.7932 14.3843 27.6672 14.3992C27.5412 14.4142 27.4194 14.4539 27.3088 14.516C27.1981 14.578 27.1007 14.6613 27.0222 14.761C27.0112 14.7742 27.0011 14.788 26.9919 14.8025C26.0372 16.0824 25.2911 17.5054 24.7816 19.0186C24.2541 20.5666 23.9841 22.1906 23.9825 23.826C23.9864 24.8574 24.0935 25.8859 24.3021 26.8961L24.5738 28.2242C23.9417 28.4588 23.3963 28.8808 23.0104 29.4337C22.6246 29.9866 22.4167 30.6441 22.4146 31.3183C22.415 31.5878 22.4489 31.8562 22.5153 32.1174L23.0651 34.3181C23.2738 35.1579 23.7245 35.918 24.3611 36.5041C24.9978 37.0902 25.7925 37.4765 26.6467 37.6152C27.5667 40.141 29.2305 42.3286 31.4189 43.8898V47.6503C31.4202 47.8779 31.3405 48.0985 31.1941 48.2727C31.0477 48.4469 30.8441 48.5633 30.6198 48.6013L18.0963 50.8787C15.8706 51.2821 13.8573 52.4544 12.4078 54.191C10.9584 55.9275 10.165 58.118 10.166 60.38V69.5457C10.166 69.8017 10.2677 70.0472 10.4487 70.2283C10.6298 70.4093 10.8753 70.511 11.1313 70.511C11.3873 70.511 11.6329 70.4093 11.8139 70.2283C11.9949 70.0472 12.0966 69.8017 12.0966 69.5457V60.3784C12.0967 58.569 12.7319 56.817 13.8914 55.4279C15.0509 54.0388 16.6612 53.1008 18.4415 52.7774L29.5969 50.7492C29.7842 51.9554 30.1991 53.115 30.8196 54.1662C30.8831 54.2756 30.9677 54.3713 31.0685 54.4478C31.1692 54.5243 31.2841 54.5802 31.4065 54.6121C31.5289 54.6441 31.6564 54.6515 31.7817 54.6339C31.907 54.6164 32.0276 54.5742 32.1365 54.5098C32.2462 54.446 32.3422 54.361 32.4188 54.2597C32.4955 54.1585 32.5512 54.043 32.5829 53.9201C32.6146 53.7971 32.6215 53.6691 32.6033 53.5435C32.5851 53.4178 32.5421 53.297 32.4769 53.1881C31.9649 52.3178 31.6283 51.3557 31.486 50.3561C32.032 50.1458 32.5014 49.7749 32.8323 49.2925C33.1633 48.81 33.3403 48.2386 33.3399 47.6535V45.0341C35.1459 45.9112 37.1273 46.3669 39.135 46.3669C41.1426 46.3669 43.1241 45.9112 44.9301 45.0341V47.6487C44.93 48.2342 45.1072 48.8059 45.4384 49.2886C45.7696 49.7713 46.2393 50.1424 46.7856 50.3529C46.5293 52.1937 45.6156 53.8797 44.2132 55.0994C42.8108 56.3191 41.0144 56.9902 39.1558 56.9886C38.7701 56.9876 38.3851 56.9592 38.0035 56.9039C37.7502 56.8645 37.4917 56.9273 37.2847 57.0785C37.0777 57.2297 36.9393 57.4569 36.8999 57.7102C36.8605 57.9635 36.9233 58.222 37.0745 58.429C37.2257 58.6359 37.4529 58.7743 37.7062 58.8138C38.1824 58.884 38.6632 58.9193 39.1446 58.9192C41.4489 58.9225 43.6782 58.1003 45.4285 56.6015C47.1788 55.1028 48.3344 53.0266 48.6858 50.7492L59.8429 52.7774C61.6233 53.1005 63.2338 54.0384 64.3933 55.4276C65.5529 56.8167 66.188 58.5689 66.1877 60.3784V69.5441C66.1877 69.8001 66.2894 70.0456 66.4705 70.2267C66.6515 70.4077 66.897 70.5094 67.153 70.5094C67.409 70.5094 67.6546 70.4077 67.8356 70.2267C68.0166 70.0456 68.1183 69.8001 68.1183 69.5441V60.3784C68.1194 58.1164 67.326 55.9259 65.8765 54.1894C64.4271 52.4528 62.4138 51.2805 60.1881 50.8771ZM39.1558 44.43C36.724 44.441 34.3535 43.6678 32.3958 42.2252C30.4381 40.7826 28.9977 38.7473 28.288 36.4214L28.0786 35.7453H27.3642C26.8047 35.7479 26.2606 35.5623 25.8194 35.2182C25.3782 34.8741 25.0656 34.3916 24.9318 33.8483L24.3884 31.6444C24.3378 31.4425 24.334 31.2319 24.3771 31.0283C24.4202 30.8248 24.5092 30.6338 24.6373 30.4698C24.7653 30.3059 24.9291 30.1733 25.1161 30.0821C25.3031 29.991 25.5085 29.9437 25.7165 29.9439H26.9008L26.1944 26.4998C26.1113 26.0906 26.0473 25.6783 26.001 25.2659C26.9247 23.2922 29.3476 22.5122 30.2586 22.2837L33.2952 24.3118C35.0261 25.4654 37.0597 26.081 39.1398 26.081C41.2199 26.081 43.2535 25.4654 44.9844 24.3118L48.021 22.2837C48.9336 22.5122 51.3532 23.2938 52.277 25.2643C52.2322 25.6788 52.1683 26.0906 52.0852 26.4998L51.3804 29.9375H52.5806C52.7621 29.9368 52.9419 29.9726 53.1093 30.0426C53.2768 30.1126 53.4285 30.2154 53.5555 30.345C53.8069 30.6013 53.949 30.945 53.9519 31.3039C53.9503 31.4176 53.9359 31.5308 53.9087 31.6412L53.359 33.8419C53.2244 34.3825 52.9127 34.8626 52.4736 35.2056C52.0345 35.5485 51.4933 35.7346 50.9361 35.7341H50.2281L50.0139 36.415C49.3054 38.7403 47.8668 40.7755 45.911 42.2191C43.9553 43.6627 41.5866 44.438 39.1558 44.43Z" fill="black"/>
    <path d="M18.8588 61.8168C18.6045 61.8168 18.3606 61.9178 18.1808 62.0976C18.0009 62.2775 17.8999 62.5214 17.8999 62.7757V69.5377C17.8999 69.7939 18.0017 70.0397 18.1829 70.2208C18.3641 70.402 18.6098 70.5038 18.866 70.5038C19.1222 70.5038 19.368 70.402 19.5492 70.2208C19.7303 70.0397 19.8321 69.7939 19.8321 69.5377V62.7821C19.833 62.6544 19.8083 62.5278 19.7596 62.4098C19.7109 62.2918 19.6391 62.1847 19.5485 62.0948C19.4578 62.0048 19.3501 61.9339 19.2317 61.8862C19.1133 61.8385 18.9865 61.8149 18.8588 61.8168Z" fill="black"/>
    <path d="M59.4272 61.8168C59.1729 61.8168 58.929 61.9178 58.7491 62.0976C58.5693 62.2775 58.4683 62.5214 58.4683 62.7757V69.5377C58.4683 69.7939 58.57 70.0397 58.7512 70.2208C58.9324 70.402 59.1781 70.5038 59.4344 70.5038C59.6906 70.5038 59.9363 70.402 60.1175 70.2208C60.2987 70.0397 60.4005 69.7939 60.4005 69.5377V62.7821C60.4014 62.6544 60.3767 62.5278 60.328 62.4098C60.2793 62.2918 60.2075 62.1847 60.1168 62.0948C60.0262 62.0048 59.9185 61.9339 59.8001 61.8862C59.6816 61.8385 59.5549 61.8149 59.4272 61.8168Z" fill="black"/>
    <path d="M34.8214 55.6653C34.6105 55.5197 34.3504 55.4639 34.0983 55.51C33.8463 55.5562 33.6229 55.7006 33.4773 55.9114C33.3317 56.1223 33.2758 56.3824 33.322 56.6345C33.3681 56.8865 33.5125 57.1099 33.7234 57.2555L33.7394 57.2651C33.9479 57.4135 34.2069 57.4729 34.4592 57.4303C34.7116 57.3878 34.9367 57.2467 35.0851 57.0382C35.2334 56.8296 35.2928 56.5707 35.2503 56.3183C35.2077 56.066 35.0667 55.8408 34.8581 55.6925L34.8182 55.6653H34.8214Z" fill="black"/>
    <path d="M30.4615 13.5943C30.6714 13.5941 30.8756 13.5256 31.0432 13.3993H31.0528C31.2316 13.2597 31.3552 13.0613 31.4015 12.8392C31.4479 12.6172 31.414 12.3859 31.3059 12.1864C31.1978 11.987 31.0225 11.8323 30.8111 11.7499C30.5998 11.6675 30.3661 11.6627 30.1515 11.7364C29.937 11.81 29.7555 11.9573 29.6393 12.1522C29.5231 12.347 29.4797 12.5767 29.5169 12.8005C29.554 13.0243 29.6693 13.2276 29.8423 13.3744C30.0152 13.5212 30.2346 13.602 30.4615 13.6023V13.5943Z" fill="black"/>
    </g>
    <defs>
    <clipPath id="clip0_197_3439">
    <rect width="79.91" height="79.91" fill="white"/>
    </clipPath>
    </defs>
</svg>