<svg xmlns="http://www.w3.org/2000/svg" width="80" height="81" viewBox="0 0 80 81" fill="none">
  <g clip-path="url(#clip0_197_4256)">
    <path d="M33.8819 33.5851C35.3891 32.4553 36.6124 30.99 37.4548 29.3053C38.2973 27.6206 38.7359 25.7629 38.7357 23.8793V21.3222C38.7357 18.1402 37.4716 15.0885 35.2216 12.8385C32.9716 10.5885 29.92 9.32446 26.738 9.32446C24.51 9.32482 22.3261 9.94547 20.4309 11.1169C18.5358 12.2883 17.0041 13.9643 16.0077 15.957C15.5457 16.8805 14.8357 17.6571 13.9573 18.1999C13.0789 18.7427 12.0667 19.0303 11.0341 19.0303H5.98535V25.4807C5.98535 27.631 6.83955 29.6932 8.36003 31.2137C9.88051 32.7341 11.9427 33.5883 14.093 33.5883H33.8819V33.5851Z" fill="#C47220"/>
    <path d="M70.3306 62.7476V65.1289H54.9543C53.6811 65.1288 52.4242 64.8424 51.2766 64.2907C50.1291 63.7391 49.1203 62.9364 48.325 61.9421L42.116 54.1812L36.1739 46.7544C36.2683 47.2555 36.3159 47.7643 36.3161 48.2743V48.3526C36.3149 49.4409 36.0994 50.5184 35.6817 51.5234C35.2641 52.5284 34.6526 53.4413 33.8821 54.21V73.6281H9.6246V70.5596C9.62511 64.5699 8.48275 58.6351 6.25879 53.0737C5.27664 50.6186 4.77217 47.9986 4.77246 45.3543C4.77246 42.2333 6.0122 39.24 8.219 37.0329C10.4258 34.8258 13.4189 33.5856 16.54 33.5852H35.4883C36.4423 33.5857 37.3829 33.811 38.2336 34.2427C39.0844 34.6745 39.8215 35.3006 40.3852 36.0704L49.3702 48.3765L54.5132 55.4214L61.793 57.8491H65.4321C66.0753 57.8489 66.7123 57.9754 67.3066 58.2214C67.9009 58.4674 68.4409 58.828 68.8958 59.2828C69.3507 59.7375 69.7115 60.2774 69.9577 60.8716C70.2039 61.4659 70.3306 62.1028 70.3306 62.746V62.7476Z" fill="#FFC431"/>
    <path d="M39.9551 65.1289H53.3C54.2656 65.1289 55.1916 65.5125 55.8744 66.1952C56.5572 66.878 56.9407 67.804 56.9407 68.7696V72.4087H39.9551V65.1289Z" fill="#D1E4FF"/>
    <path d="M72.7179 72.4087H56.9404V68.7696C56.9402 68.2916 57.0342 67.8182 57.217 67.3765C57.3998 66.9348 57.6678 66.5334 58.0057 66.1953C58.3437 65.8572 58.7449 65.5891 59.1865 65.4061C59.6282 65.2231 60.1015 65.1289 60.5795 65.1289H72.7179V72.4087Z" fill="#BED3F7"/>
    <path d="M39.9549 65.1289H30.249V72.4087H39.9549V65.1289Z" fill="#BED3F7"/>
    <path d="M70.3303 62.7475V65.1288H54.9541C53.6808 65.1287 52.4239 64.8423 51.2763 64.2906C50.1288 63.739 49.12 62.9363 48.3247 61.942L42.1157 54.1811L49.37 48.3765L54.513 55.4213L61.7928 57.849H65.4319C66.0751 57.8488 66.712 57.9753 67.3063 58.2213C67.9006 58.4673 68.4406 58.828 68.8955 59.2827C69.3504 59.7374 69.7113 60.2773 69.9574 60.8716C70.2036 61.4658 70.3303 62.1027 70.3303 62.7459V62.7475Z" fill="#FFCEB6"/>
    <path d="M30.249 27.52V35.4055C30.249 36.8535 29.6738 38.2421 28.6499 39.266C27.6261 40.2898 26.2375 40.865 24.7895 40.865C23.3416 40.865 21.953 40.2898 20.9291 39.266C19.9053 38.2421 19.3301 36.8535 19.3301 35.4055V27.52H30.249Z" fill="#FFCEB6"/>
    <path d="M50.8739 61.4898V65.1289L47.2348 63.9158L38.9434 52.8627L36.3159 49.3578L39.955 46.9302L42.5825 50.435L50.8739 61.4898Z" fill="#548AFF"/>
    <path d="M42.5825 50.435L38.9434 52.8627L36.3159 49.3578L39.955 46.9302L42.5825 50.435Z" fill="#7DAFFF"/>
    <path d="M36.3161 65.1288H21.683C20.1964 65.1287 18.7296 64.7871 17.396 64.1303C16.0623 63.4736 14.8973 62.5193 13.9908 61.341L10.5371 56.8469L19.487 50.4541L22.9647 55.4213L33.882 57.8506L37.9063 55.8384C38.4519 55.5649 39.0539 55.4226 39.6643 55.4229C40.1799 55.4229 40.6904 55.5245 41.1668 55.7218C41.6431 55.9192 42.0759 56.2085 42.4404 56.5731C42.8049 56.9378 43.094 57.3707 43.2912 57.8471C43.4883 58.3235 43.5897 58.8341 43.5895 59.3497V62.7059C43.5895 63.3493 43.3339 63.9664 42.8789 64.4214C42.4239 64.8764 41.8068 65.132 41.1634 65.132H32.6754" fill="#FFCEB6"/>
    <path d="M33.882 22.6662V28.7394C33.882 30.6699 33.1152 32.5213 31.7504 33.8864C30.3855 35.2516 28.5342 36.0188 26.6038 36.0192C24.6745 36.0154 22.8255 35.2459 21.4632 33.8797C20.1009 32.5135 19.3367 30.6624 19.3384 28.733V23.8793L19.6404 23.8297C21.8278 23.465 23.9099 22.6298 25.743 21.3817C27.576 20.1337 29.1162 18.5026 30.2573 16.6011L33.882 22.6662Z" fill="#FFCEB6"/>
    <path d="M25.3971 26.3069C26.0671 26.3069 26.6101 25.7638 26.6101 25.0939C26.6101 24.424 26.0671 23.8809 25.3971 23.8809C24.7272 23.8809 24.1841 24.424 24.1841 25.0939C24.1841 25.7638 24.7272 26.3069 25.3971 26.3069Z" fill="black"/>
    <path d="M30.2489 32.3722V29.9461H27.1116C26.7257 29.9479 26.3433 29.8729 25.9867 29.7256C25.63 29.5782 25.3061 29.3615 25.034 29.0879L23.3335 30.8044C23.8295 31.3031 24.4196 31.6985 25.0695 31.9677C25.7194 32.2368 26.4162 32.3743 27.1196 32.3722H30.2489Z" fill="black"/>
    <path d="M30.2492 26.3069C30.9191 26.3069 31.4622 25.7638 31.4622 25.0939C31.4622 24.424 30.9191 23.8809 30.2492 23.8809C29.5792 23.8809 29.0361 24.424 29.0361 25.0939C29.0361 25.7638 29.5792 26.3069 30.2492 26.3069Z" fill="black"/>
    <path d="M73.9246 71.1956V65.1224C73.9246 64.8007 73.7968 64.4922 73.5694 64.2647C73.3419 64.0372 73.0333 63.9094 72.7116 63.9094H71.5433V62.7427C71.5416 61.1222 70.8973 59.5685 69.7515 58.4225C68.6058 57.2765 67.0523 56.6317 65.4318 56.6296H61.9893L55.2641 54.3921L41.3597 35.356C40.2576 33.8533 38.6231 32.8283 36.7905 32.4904C38.8237 30.0807 39.944 27.0322 39.9549 23.8793V21.3222C39.9559 18.3459 38.9518 15.4566 37.1054 13.1223C35.259 10.788 32.6785 9.14561 29.782 8.46122C26.8856 7.77682 23.8428 8.09054 21.1469 9.35154C18.451 10.6125 16.2599 12.7469 14.9287 15.4088C14.5689 16.1315 14.014 16.7391 13.3268 17.1628C12.6396 17.5864 11.8476 17.8093 11.0403 17.8061H5.98516C5.66345 17.8061 5.35491 17.9339 5.12742 18.1614C4.89993 18.3889 4.77213 18.6974 4.77213 19.0192V25.4695C4.77415 27.2677 5.2956 29.0271 6.27376 30.536C7.25193 32.045 8.64516 33.2392 10.2859 33.9751C8.25019 35.0957 6.55227 36.7418 5.36913 38.7418C4.18598 40.7418 3.56092 43.0225 3.5591 45.3463C3.55584 48.1452 4.0897 50.9187 5.13173 53.5163C7.30417 58.9333 8.41745 64.7167 8.41123 70.5531V73.6281H10.8373V70.5595C10.8403 65.8047 10.1374 61.0757 8.75165 56.5273L13.0284 62.0875C14.0517 63.4093 15.3632 64.4801 16.8629 65.2185C18.3626 65.9569 20.0111 66.3433 21.6827 66.3483H29.0344V71.202H26.6099V73.6281H76.3507V71.1956H73.9246ZM54.1293 56.5737L61.4091 59.0013C61.5329 59.0421 61.6624 59.0631 61.7927 59.0637H65.4318C66.409 59.0645 67.3459 59.4531 68.0369 60.144C68.7279 60.835 69.1164 61.7719 69.1173 62.7491V63.9158H60.5797C59.8908 63.9159 59.2099 64.0629 58.5824 64.3471C57.9548 64.6312 57.3951 65.0459 56.9406 65.5635C56.4857 65.046 55.9256 64.6313 55.2979 64.3472C54.6701 64.0631 53.989 63.916 53.2999 63.9158H52.0868V61.4897C52.0868 61.2269 52.0016 60.9712 51.8439 60.7609L45.8395 52.7556L49.1366 50.1169L53.5396 56.139C53.6866 56.3413 53.8926 56.4931 54.1293 56.5737ZM55.7275 71.1956H41.1679V66.3419H53.2999C53.9433 66.3427 54.5602 66.5988 55.015 67.0539C55.4698 67.5091 55.7255 68.1261 55.7259 68.7695L55.7275 71.1956ZM36.7969 52.0172L38.5357 54.3378C38.1323 54.4274 37.7415 54.5664 37.3722 54.7517L35.1028 55.888V54.6942C35.8131 53.9037 36.3853 52.9993 36.7953 52.0188L36.7969 52.0172ZM38.0546 49.6551L39.6736 48.5779L40.8435 50.1377L39.2261 51.2165L38.0546 49.6551ZM41.8296 54.6894L40.6837 53.1599L42.3011 52.0811L49.6608 61.8941V63.4459L47.9779 62.885L44.7495 58.5826C44.6216 57.7432 44.2881 56.9484 43.7787 56.2692C43.2692 55.5899 42.5996 55.0472 41.8296 54.6894ZM44.807 62.7028L45.718 63.9158H44.5993C44.7376 63.5264 44.8078 63.116 44.807 62.7028ZM20.5432 28.733V24.8973C24.371 24.0878 27.7869 21.9451 30.1819 18.8514L32.6751 23.0067V28.7362C32.5992 30.2939 31.927 31.7627 30.7977 32.8383C29.6685 33.9139 28.1687 34.5139 26.6091 34.5139C25.0496 34.5139 23.5498 33.9139 22.4205 32.8383C21.2913 31.7627 20.619 30.2939 20.5432 28.7362V28.733ZM20.5432 34.7982H20.6742C21.7188 35.823 23.0107 36.5601 24.4244 36.9379C25.838 37.3157 27.3254 37.3213 28.7419 36.9542C28.3818 37.8762 27.7108 38.6434 26.8449 39.123C25.9791 39.6027 24.9728 39.7647 24.0001 39.581C23.0275 39.3972 22.1496 38.8794 21.5183 38.1169C20.8871 37.3545 20.5421 36.3954 20.5432 35.4055V34.7982ZM14.0928 32.3721C12.2638 32.3717 10.5097 31.6454 9.2158 30.3527C7.92188 29.0599 7.19392 27.3065 7.19181 25.4775V20.2482H11.0275C12.2898 20.2548 13.5285 19.9065 14.6023 19.243C15.6762 18.5795 16.5419 17.6275 17.1006 16.4956C18.1879 14.324 19.9762 12.5829 22.1762 11.5543C24.3761 10.5256 26.8589 10.2696 29.2224 10.8277C31.586 11.3858 33.692 12.7252 35.1995 14.6293C36.707 16.5333 37.5278 18.8904 37.5288 21.319V23.8761C37.5223 26.5595 36.533 29.1475 34.748 31.1511C34.983 30.3655 35.1025 29.5499 35.1028 28.7298V22.6567C35.1023 22.4369 35.0421 22.2215 34.9286 22.0334L31.2895 15.9602C31.1815 15.7812 31.0292 15.6331 30.8472 15.5303C30.6652 15.4275 30.4597 15.3735 30.2506 15.3735C30.0416 15.3735 29.8361 15.4275 29.6541 15.5303C29.4721 15.6331 29.3197 15.7812 29.2118 15.9602C28.1624 17.7123 26.7445 19.2152 25.0564 20.3646C23.3683 21.514 21.4504 22.2825 19.4356 22.6167L19.1336 22.6679C18.8504 22.7148 18.5932 22.8607 18.4076 23.0797C18.222 23.2986 18.1202 23.5763 18.1203 23.8633V32.3561L14.0928 32.3721ZM16.5413 34.7918H18.1171V35.3991C18.1161 37.1438 18.7986 38.8195 20.0181 40.0671C21.2377 41.3147 22.8975 42.035 24.6417 42.0736C26.386 42.1123 28.076 41.4663 29.3497 40.2739C30.6233 39.0816 31.3793 37.4378 31.4557 35.6948C31.8431 35.4241 32.2076 35.1221 32.5456 34.7918H35.4799C36.2435 34.7934 36.996 34.9744 37.6767 35.3203C38.3574 35.6662 38.9473 36.1673 39.3987 36.7832L47.6982 48.1496L44.3771 50.8058L40.925 46.2029C40.7392 45.9547 40.4652 45.7872 40.1596 45.7348C39.854 45.6825 39.5399 45.7494 39.2821 45.9217L37.4601 47.1363C37.3835 46.5026 37.2432 45.8783 37.0414 45.2728L36.2535 42.9075L33.9505 43.6746L34.74 46.0399C34.9802 46.7614 35.1027 47.5169 35.1028 48.2774V48.3541C35.1039 49.2833 34.9209 50.2036 34.5643 51.0617C34.2077 51.9197 33.6845 52.6986 33.0251 53.3533C32.9122 53.4659 32.8226 53.5997 32.7615 53.7469C32.7003 53.8942 32.6688 54.0521 32.6687 54.2115V56.3387L23.6868 54.3426L15.4721 42.5958L13.4839 43.9878L17.8086 50.1665L10.7846 55.1832L8.1747 51.7903C6.97098 50.2278 6.22907 48.3594 6.0331 46.3968C5.83713 44.4342 6.19492 42.4559 7.06592 40.6863C7.93692 38.9167 9.28629 37.4265 10.961 36.3846C12.6358 35.3428 14.5689 34.791 16.5413 34.7918ZM14.9431 60.5947L12.2645 57.1091L19.2007 52.1546L21.9768 56.1198C22.1506 56.368 22.4112 56.5419 22.7071 56.6072L33.626 59.0349C33.8961 59.0927 34.1778 59.0572 34.4251 58.9342L38.4494 56.9237C38.8631 56.7183 39.3223 56.6217 39.7836 56.6432C40.245 56.6646 40.6932 56.8032 41.0861 57.046C41.479 57.2889 41.8034 57.6278 42.0289 58.0309C42.2543 58.434 42.3733 58.8879 42.3746 59.3497V62.706C42.3746 63.0277 42.2468 63.3362 42.0193 63.5637C41.7918 63.7912 41.4833 63.919 41.1615 63.919H21.6827C20.3822 63.9145 19.0998 63.6134 17.9332 63.0384C16.7667 62.4635 15.7468 61.6299 14.9511 60.6011L14.9431 60.5947ZM31.4541 66.3355H38.7339V71.1892H31.4621L31.4541 66.3355ZM58.144 71.1892V68.7695C58.1444 68.1261 58.4001 67.5091 58.855 67.0539C59.3098 66.5988 59.9266 66.3427 60.5701 66.3419H71.489V71.1956L58.144 71.1892Z" fill="black"/>
  </g>
  <defs>
    <clipPath id="clip0_197_4256">
      <rect width="79.91" height="79.91" fill="white" transform="translate(0 0.909912)"/>
    </clipPath>
  </defs>
</svg>