<svg xmlns="http://www.w3.org/2000/svg" width="80" height="80" viewBox="0 0 80 80" fill="none">
  <g clip-path="url(#clip0_197_4186)">
    <path d="M16.3511 17.8822V48.4254H45.4895V17.8822C45.4881 16.396 45.1774 14.9263 44.5771 13.5668C43.9768 12.2072 43.1 10.9875 42.0026 9.98522C40.9052 8.98297 39.6112 8.22014 38.2029 7.74527C36.7946 7.2704 35.3028 7.0939 33.8226 7.227L31.7817 7.41239C31.2118 7.46513 30.6383 7.46513 30.0684 7.41239L28.0275 7.227C26.5465 7.09249 25.0538 7.26794 23.6443 7.74217C22.2349 8.21639 20.9396 8.979 19.8412 9.9814C18.7427 10.9838 17.865 12.204 17.2642 13.5643C16.6633 14.9246 16.3523 16.3951 16.3511 17.8822Z" fill="#FDBD37"/>
    <path d="M33.818 7.22705L31.7771 7.41244C31.2072 7.46519 30.6337 7.46519 30.0638 7.41244L29.6387 7.37408C32.0806 7.84512 34.2825 9.15147 35.8663 11.0689C37.4501 12.9863 38.3171 15.3953 38.3185 17.8822V48.4254H45.4896V17.8822C45.4883 16.3956 45.1775 14.9255 44.5769 13.5656C43.9763 12.2057 43.0991 10.9857 42.0012 9.98336C40.9032 8.98104 39.6086 8.21832 38.1997 7.74377C36.7908 7.26923 35.2986 7.09325 33.818 7.22705Z" fill="#FA9A39"/>
    <path d="M48.7003 46.2616C45.3375 44.5545 41.7462 43.3413 38.0371 42.6592C37.3497 42.5316 36.7286 42.1672 36.2817 41.6295C35.8347 41.0918 35.5901 40.4146 35.5903 39.7153V33.9922H26.2424V39.7153C26.2427 40.4143 25.9983 41.0914 25.5517 41.6291C25.1051 42.1668 24.4844 42.5312 23.7972 42.6592C20.0899 43.3421 16.5002 44.5554 13.1388 46.2616C11.9482 46.8664 10.9483 47.7891 10.2498 48.9273C9.5514 50.0655 9.18168 51.3749 9.18164 52.7103V68.4558H52.6527V52.7103C52.6533 51.3753 52.2843 50.0663 51.5868 48.9281C50.8892 47.7899 49.8901 46.8669 48.7003 46.2616Z" fill="#FED6A6"/>
    <path d="M48.7001 46.2616C45.3374 44.5545 41.746 43.3413 38.037 42.6592C37.3495 42.5316 36.7284 42.1672 36.2815 41.6295C35.8345 41.0918 35.5899 40.4146 35.5901 39.7153V33.9922H28.395V42.4626C28.3951 43.1619 28.6403 43.8391 29.0879 44.3764C29.5355 44.9136 30.1573 45.277 30.8451 45.4033C34.552 46.0865 38.1411 47.3003 41.5019 49.0073C42.6923 49.6124 43.6919 50.5354 44.3899 51.674C45.0878 52.8126 45.4567 54.1222 45.4558 55.4576V68.4574H52.6589V52.7103C52.6589 51.3747 52.289 50.0651 51.5902 48.9269C50.8915 47.7886 49.8912 46.8661 48.7001 46.2616Z" fill="#EFC79C"/>
    <path d="M20.663 20.7766H18.9625C18.6195 20.7766 18.2797 20.8442 17.9628 20.9755C17.6459 21.1069 17.3579 21.2994 17.1154 21.5421C16.8729 21.7847 16.6805 22.0728 16.5494 22.3898C16.4183 22.7068 16.3509 23.0466 16.3511 23.3897V24.6267C16.3509 24.9698 16.4183 25.3095 16.5494 25.6265C16.6805 25.9435 16.8729 26.2316 17.1154 26.4743C17.3579 26.717 17.6459 26.9095 17.9628 27.0408C18.2797 27.1721 18.6195 27.2397 18.9625 27.2397H20.663V20.7766Z" fill="#FED6A6"/>
    <path d="M41.1777 20.7766H42.8766C43.2198 20.7764 43.5597 20.8438 43.8768 20.9751C44.194 21.1063 44.4821 21.2988 44.7248 21.5415C44.9675 21.7842 45.16 22.0723 45.2912 22.3894C45.4224 22.7066 45.4899 23.0465 45.4897 23.3897V24.6267C45.4899 24.9699 45.4224 25.3098 45.2912 25.6269C45.16 25.944 44.9675 26.2322 44.7248 26.4749C44.4821 26.7175 44.194 26.91 43.8768 27.0413C43.5597 27.1725 43.2198 27.2399 42.8766 27.2397H41.1777V20.7766Z" fill="#FED6A6"/>
    <path d="M30.9205 14.259C26.209 18.9705 19.9009 19.4484 19.9009 19.4484L19.936 28.6892C19.936 35.9914 27.6074 39.4307 30.9205 39.501C34.2383 39.4307 41.9049 35.985 41.9049 28.6892L41.9401 19.4484C41.9401 19.4484 35.64 18.9705 30.9205 14.259Z" fill="#FFE3C2"/>
    <path d="M34.7319 17.1152L34.7016 28.6894C34.7016 33.9203 30.77 37.1678 27.3179 38.6158C28.6859 39.1896 29.9773 39.482 30.9202 39.5012C34.2381 39.4309 41.9046 35.9852 41.9046 28.6894L41.9398 19.4486C39.4077 19.1496 36.9589 18.3568 34.7319 17.1152Z" fill="#F7D6B5"/>
    <path d="M48.7001 46.2615C46.3974 45.0932 43.9853 44.1543 41.4987 43.4583C40.145 45.6302 35.8362 47.2188 30.7284 47.2188C25.6925 47.2188 21.4333 45.675 20.0205 43.5509C17.6492 44.2381 15.3482 45.1478 13.1482 46.2679C11.9572 46.8724 10.9569 47.7949 10.2581 48.9332C9.55934 50.0714 9.18946 51.381 9.18945 52.7166V68.4621H52.6605V52.7102C52.6603 51.3744 52.2902 50.0648 51.5912 48.9265C50.8921 47.7882 49.8915 46.8658 48.7001 46.2615Z" fill="#FF94A6"/>
    <path d="M48.7004 46.2615C46.3976 45.0932 43.9855 44.1543 41.4989 43.4583C40.6295 44.8551 38.5358 46.0154 35.7949 46.6547C37.7549 47.2876 39.6621 48.0736 41.4989 49.0056C42.6901 49.6106 43.6904 50.5337 44.3889 51.6726C45.0874 52.8114 45.4568 54.1215 45.456 55.4575V68.4573H52.6591V52.7102C52.6591 51.3746 52.2892 50.0651 51.5905 48.9268C50.8917 47.7885 49.8914 46.866 48.7004 46.2615Z" fill="#F4849C"/>
    <path d="M22.6946 42.8796C21.4736 43.1417 20.2632 43.4614 19.0635 43.8386V58.3582H22.6946V42.8796Z" fill="#4C7BA5"/>
    <path d="M42.1525 43.6485C40.9539 43.2905 39.7419 42.9917 38.5166 42.752V58.9737H42.1477L42.1525 43.6485Z" fill="#4C7BA5"/>
    <path d="M45.9611 68.4556V57.9251C45.9619 57.6611 45.8921 57.4017 45.7589 57.1738C45.6257 56.9459 45.434 56.7578 45.2036 56.629C44.0928 56.0073 42.1542 54.7111 42.1542 53.2088V52.9403C42.1542 52.7813 42.1228 52.6238 42.0619 52.477C42.001 52.3301 41.9118 52.1966 41.7993 52.0843C41.6868 51.9719 41.5532 51.8828 41.4062 51.8221C41.2593 51.7614 41.1018 51.7303 40.9428 51.7305H20.2732C20.1142 51.7303 19.9567 51.7614 19.8098 51.8221C19.6628 51.8828 19.5292 51.9719 19.4167 52.0843C19.3042 52.1966 19.2149 52.3301 19.154 52.477C19.0931 52.6238 19.0618 52.7813 19.0618 52.9403V53.2088C19.0618 54.7095 17.1232 56.0073 16.0124 56.629C15.782 56.7578 15.5903 56.9459 15.4571 57.1738C15.3239 57.4017 15.2541 57.6611 15.2549 57.9251V68.4556H45.9611Z" fill="#375779"/>
    <path d="M75.1153 72.7292H4.8025C4.54082 72.7288 4.29001 72.6245 4.10513 72.4393C3.92025 72.2542 3.81641 72.0032 3.81641 71.7415V66.9645C3.81641 66.7028 3.92025 66.4518 4.10513 66.2667C4.29001 66.0815 4.54082 65.9772 4.8025 65.9768H75.1153C75.377 65.9772 75.6278 66.0815 75.8127 66.2667C75.9976 66.4518 76.1014 66.7028 76.1014 66.9645V71.7495C76.0993 72.0098 75.9945 72.2587 75.8099 72.4422C75.6252 72.6256 75.3756 72.7288 75.1153 72.7292Z" fill="#8B5F46"/>
    <path d="M75.1154 65.969H68.8984V72.7294H75.1154C75.3771 72.729 75.6279 72.6247 75.8128 72.4395C75.9977 72.2543 76.1015 72.0034 76.1015 71.7417V66.9647C76.1026 66.8344 76.0779 66.7053 76.0288 66.5846C75.9797 66.464 75.9073 66.3542 75.8156 66.2617C75.724 66.1691 75.6149 66.0956 75.4948 66.0454C75.3746 65.9952 75.2457 65.9692 75.1154 65.969Z" fill="#844535"/>
    <path d="M68.2175 50.3081H56.3733C55.1093 50.3081 53.8971 50.8102 53.0033 51.704C52.1095 52.5978 51.6074 53.81 51.6074 55.0739V62.6015C51.6074 63.5717 51.9928 64.5022 52.6789 65.1883C53.365 65.8743 54.2955 66.2597 55.2657 66.2597H69.3299C70.3001 66.2597 71.2306 65.8743 71.9167 65.1883C72.6027 64.5022 72.9881 63.5717 72.9881 62.6015V55.0739C72.9881 54.4477 72.8647 53.8276 72.6249 53.249C72.3851 52.6705 72.0336 52.1449 71.5906 51.7023C71.1475 51.2597 70.6216 50.9087 70.0428 50.6695C69.464 50.4303 68.8438 50.3075 68.2175 50.3081Z" fill="#B2B9BF"/>
    <path d="M68.2174 50.3081H63.5107C63.8091 50.3081 64.1046 50.3669 64.3802 50.4811C64.6558 50.5954 64.9063 50.7628 65.1172 50.9738C65.3281 51.1849 65.4953 51.4354 65.6094 51.7112C65.7234 51.9869 65.782 52.2824 65.7818 52.5807V65.0978C65.7818 65.4064 65.6592 65.7024 65.441 65.9206C65.2228 66.1388 64.9269 66.2613 64.6183 66.2613H69.3266C70.2968 66.2613 71.2273 65.8759 71.9134 65.1899C72.5994 64.5038 72.9849 63.5733 72.9849 62.6031V55.0739C72.9849 54.4479 72.8615 53.8281 72.6219 53.2498C72.3823 52.6714 72.0311 52.146 71.5884 51.7034C71.1457 51.2608 70.6201 50.9098 70.0417 50.6704C69.4633 50.431 68.8434 50.3079 68.2174 50.3081Z" fill="#A3ACB2"/>
    <path d="M68.2175 50.3081H56.3733C55.1093 50.3081 53.8971 50.8102 53.0033 51.704C52.1095 52.5978 51.6074 53.81 51.6074 55.0739H72.9849C72.9849 54.4479 72.8616 53.8281 72.622 53.2498C72.3824 52.6714 72.0312 52.146 71.5885 51.7034C71.1458 51.2608 70.6202 50.9098 70.0418 50.6704C69.4634 50.431 68.8435 50.3079 68.2175 50.3081Z" fill="#545464"/>
    <path d="M70.6051 50.949C70.5444 50.9138 70.4837 50.8803 70.4198 50.8467C69.74 50.4918 68.9843 50.307 68.2174 50.3081H63.5107C63.8091 50.3081 64.1046 50.3669 64.3802 50.4811C64.6558 50.5954 64.9063 50.7628 65.1172 50.9739C65.3281 51.1849 65.4953 51.4354 65.6094 51.7112C65.7234 51.9869 65.782 52.2824 65.7818 52.5808V55.0739H72.9849C72.9849 54.6723 72.9344 54.2723 72.8346 53.8833C72.796 53.7318 72.7496 53.5825 72.6956 53.4358C72.5639 53.0734 72.3878 52.7288 72.1714 52.4097C71.84 51.9212 71.4218 51.4976 70.9376 51.1599C70.8289 51.0848 70.7186 51.0145 70.6051 50.949Z" fill="#394856"/>
    <path d="M31.0881 29.7521H31.8968C32.0435 29.7577 32.1899 29.7336 32.3271 29.6813C32.4644 29.6291 32.5897 29.5496 32.6955 29.4478C32.8013 29.3459 32.8855 29.2238 32.943 29.0887C33.0005 28.9535 33.0301 28.8082 33.0301 28.6613C33.0301 28.5144 33.0005 28.3691 32.943 28.2339C32.8855 28.0988 32.8013 27.9767 32.6955 27.8748C32.5897 27.773 32.4644 27.6935 32.3271 27.6412C32.1899 27.589 32.0435 27.5649 31.8968 27.5705H31.7929V25.8125C31.7821 25.5304 31.6624 25.2635 31.4591 25.0678C31.2557 24.872 30.9844 24.7627 30.7021 24.7627C30.4198 24.7627 30.1485 24.872 29.9452 25.0678C29.7418 25.2635 29.6221 25.5304 29.6113 25.8125V28.2689C29.6107 28.4633 29.6484 28.656 29.7223 28.8358C29.7962 29.0156 29.9049 29.1791 30.0421 29.3168C30.1792 29.4546 30.3422 29.5639 30.5217 29.6386C30.7012 29.7133 30.8937 29.7519 31.0881 29.7521Z" fill="black"/>
    <path d="M35.5153 32.7902C35.5965 32.6691 35.6527 32.533 35.6804 32.3898C35.7081 32.2467 35.7069 32.0994 35.6768 31.9568C35.6467 31.8141 35.5883 31.6789 35.5051 31.5592C35.4219 31.4395 35.3156 31.3376 35.1923 31.2597C35.0691 31.1817 34.9315 31.1292 34.7877 31.1053C34.6438 31.0814 34.4967 31.0866 34.3549 31.1205C34.2131 31.1544 34.0795 31.2164 33.962 31.3028C33.8446 31.3892 33.7456 31.4983 33.671 31.6235C33.1803 32.3987 32.1015 32.9021 30.9205 32.9021C29.7394 32.9021 28.6606 32.4002 28.17 31.6235C28.0115 31.3873 27.7671 31.2223 27.4888 31.1635C27.2105 31.1048 26.9203 31.157 26.6799 31.3091C26.4395 31.4612 26.268 31.701 26.2018 31.9777C26.1357 32.2543 26.1801 32.5458 26.3256 32.7902C27.2206 34.2046 28.9819 35.082 30.9205 35.082C32.8591 35.082 34.6203 34.2014 35.5153 32.7902Z" fill="black"/>
    <path d="M36.5429 25.7439C36.6862 25.7441 36.8281 25.7161 36.9605 25.6614C37.093 25.6067 37.2133 25.5265 37.3147 25.4252C37.4161 25.324 37.4965 25.2038 37.5514 25.0714C37.6062 24.9391 37.6345 24.7972 37.6345 24.6539V23.5352C37.6401 23.3884 37.6161 23.2421 37.5638 23.1048C37.5115 22.9676 37.432 22.8423 37.3302 22.7365C37.2284 22.6307 37.1062 22.5465 36.9711 22.489C36.8359 22.4315 36.6906 22.4019 36.5437 22.4019C36.3969 22.4019 36.2515 22.4315 36.1164 22.489C35.9812 22.5465 35.8591 22.6307 35.7572 22.7365C35.6554 22.8423 35.576 22.9676 35.5237 23.1048C35.4714 23.2421 35.4473 23.3884 35.4529 23.5352V24.6539C35.4529 24.943 35.5678 25.2202 35.7722 25.4247C35.9766 25.6291 36.2538 25.7439 36.5429 25.7439Z" fill="black"/>
    <path d="M26.3879 23.5352C26.3935 23.3884 26.3695 23.2421 26.3172 23.1048C26.2649 22.9676 26.1855 22.8423 26.0836 22.7365C25.9818 22.6307 25.8596 22.5465 25.7245 22.489C25.5894 22.4315 25.444 22.4019 25.2971 22.4019C25.1503 22.4019 25.0049 22.4315 24.8698 22.489C24.7346 22.5465 24.6125 22.6307 24.5107 22.7365C24.4088 22.8423 24.3294 22.9676 24.2771 23.1048C24.2248 23.2421 24.2007 23.3884 24.2064 23.5352V24.6539C24.2172 24.936 24.3368 25.2029 24.5402 25.3986C24.7436 25.5944 25.0149 25.7037 25.2971 25.7037C25.5794 25.7037 25.8507 25.5944 26.0541 25.3986C26.2575 25.2029 26.3771 24.936 26.3879 24.6539V23.5352Z" fill="black"/>
    <path d="M75.1156 64.8774H73.4966C73.8769 64.1786 74.0759 63.3956 74.0751 62.6V60.0668H74.8199C75.4372 60.066 76.029 59.8204 76.4655 59.3839C76.902 58.9474 77.1476 58.3556 77.1485 57.7383V56.3111C77.1476 55.6937 76.902 55.102 76.4655 54.6654C76.029 54.2289 75.4372 53.9833 74.8199 53.9825H73.9745C73.7186 52.6433 73.0043 51.4351 71.9543 50.5654C70.9044 49.6957 69.5843 49.2188 68.2209 49.2167H63.388V48.6173H64.1695C64.4516 48.6065 64.7185 48.4869 64.9142 48.2835C65.11 48.0801 65.2193 47.8088 65.2193 47.5266C65.2193 47.2443 65.11 46.973 64.9142 46.7696C64.7185 46.5662 64.4516 46.4466 64.1695 46.4358H60.4249C60.2782 46.4302 60.1318 46.4542 59.9945 46.5065C59.8573 46.5588 59.732 46.6382 59.6262 46.7401C59.5204 46.8419 59.4362 46.9641 59.3787 47.0992C59.3212 47.2343 59.2916 47.3797 59.2916 47.5266C59.2916 47.6734 59.3212 47.8188 59.3787 47.9539C59.4362 48.0891 59.5204 48.2112 59.6262 48.313C59.732 48.4149 59.8573 48.4943 59.9945 48.5466C60.1318 48.5989 60.2782 48.6229 60.4249 48.6173H61.2112V49.2246H56.3735C55.2948 49.2233 54.2369 49.5216 53.3177 50.0861C52.6129 48.016 51.1356 46.2982 49.1944 45.2915C45.3363 43.2761 38.9307 41.7131 38.2419 41.5868C37.8051 41.5061 37.4105 41.2748 37.1267 40.9331C36.8428 40.5915 36.6878 40.1611 36.6884 39.7169V38.758C37.2547 38.4319 37.7993 38.0695 38.3186 37.6729C40.4522 36.0443 42.9917 33.1611 42.9917 28.6942V28.3298C43.4754 28.3165 43.9518 28.2079 44.3934 28.0101V39.7361C44.4042 40.0182 44.5238 40.2851 44.7272 40.4809C44.9306 40.6766 45.2019 40.7859 45.4841 40.7859C45.7664 40.7859 46.0377 40.6766 46.2411 40.4809C46.4445 40.2851 46.5641 40.0182 46.5749 39.7361V17.8823C46.5747 16.2445 46.2333 14.6247 45.5724 13.1262C44.9116 11.6276 43.9458 10.2832 42.7366 9.17849C41.5274 8.07382 40.1014 7.23315 38.5494 6.71007C36.9973 6.18699 35.3533 5.99297 33.7222 6.14037C31.8616 6.31358 29.989 6.31358 28.1285 6.14037C26.4966 5.9918 24.8517 6.18495 23.2986 6.70748C21.7456 7.23001 20.3184 8.07046 19.1082 9.17524C17.8981 10.28 16.9314 11.6249 16.2699 13.124C15.6084 14.6232 15.2665 16.2437 15.2662 17.8823V39.7345C15.277 40.0166 15.3966 40.2835 15.6 40.4793C15.8034 40.675 16.0747 40.7843 16.3569 40.7843C16.6392 40.7843 16.9105 40.675 17.1139 40.4793C17.3173 40.2835 17.4369 40.0166 17.4477 39.7345V28.0037C17.8898 28.2017 18.3667 28.3103 18.8509 28.3234V28.683C18.8509 33.1579 21.3937 36.0347 23.5257 37.6665C24.0453 38.0634 24.5904 38.4259 25.1574 38.7516V39.7106C25.1581 40.1547 25.003 40.5851 24.7192 40.9267C24.4354 41.2684 24.0407 41.4997 23.604 41.5805C23.0478 41.6843 16.6918 43.2218 12.6499 45.2851C11.2776 45.9783 10.1249 47.0393 9.32057 48.3496C8.51625 49.6599 8.09196 51.168 8.09505 52.7055V64.887H4.80276C4.25173 64.887 3.72327 65.1059 3.33363 65.4955C2.94399 65.8852 2.7251 66.4136 2.7251 66.9647V71.7513C2.7251 72.3023 2.94399 72.8308 3.33363 73.2204C3.72327 73.61 4.25173 73.8289 4.80276 73.8289H75.1156C75.6666 73.8289 76.1951 73.61 76.5847 73.2204C76.9743 72.8308 77.1932 72.3023 77.1932 71.7513V66.9551C77.1932 66.404 76.9743 65.8756 76.5847 65.486C76.1951 65.0963 75.6666 64.8774 75.1156 64.8774ZM74.0831 56.164H74.8279C74.8669 56.164 74.9043 56.1795 74.9319 56.2071C74.9594 56.2347 74.9749 56.2721 74.9749 56.3111V57.7383C74.9749 57.7773 74.9594 57.8147 74.9319 57.8422C74.9043 57.8698 74.8669 57.8853 74.8279 57.8853H74.0831V56.164ZM52.7056 56.164H56.0171C56.2991 56.1532 56.5661 56.0336 56.7618 55.8302C56.9575 55.6268 57.0669 55.3555 57.0669 55.0733C57.0669 54.791 56.9575 54.5197 56.7618 54.3163C56.5661 54.1129 56.2991 53.9933 56.0171 53.9825H52.8638C53.097 53.2327 53.5642 52.5772 54.1969 52.1122C54.8296 51.6471 55.5946 51.3969 56.3799 51.3982H68.2241C69.0094 51.3969 69.7744 51.6471 70.4071 52.1122C71.0398 52.5772 71.507 53.2327 71.7402 53.9825H61.0834C60.8013 53.9933 60.5344 54.1129 60.3387 54.3163C60.1429 54.5197 60.0336 54.791 60.0336 55.0733C60.0336 55.3555 60.1429 55.6268 60.3387 55.8302C60.5344 56.0336 60.8013 56.1532 61.0834 56.164H71.8952V62.6C71.8965 63.0698 71.7683 63.5309 71.5247 63.9327C71.2811 64.3344 70.9315 64.6613 70.5144 64.8774H54.0785C53.6613 64.6613 53.3117 64.3344 53.0681 63.9327C52.8245 63.5309 52.6964 63.0698 52.6976 62.6L52.7056 56.164ZM43.2523 45.1444C44.9537 45.723 46.612 46.4216 48.2147 47.2349C49.0892 47.6826 49.8444 48.3324 50.4175 49.1304C50.9907 49.9284 51.3652 50.8516 51.5102 51.8233C51.0736 52.4764 50.773 53.2107 50.6264 53.9825H49.7809C49.1636 53.9833 48.5718 54.2289 48.1353 54.6654C47.6988 55.102 47.4532 55.6937 47.4523 56.3111V57.7383C47.4532 58.3556 47.6988 58.9474 48.1353 59.3839C48.5718 59.8204 49.1636 60.066 49.7809 60.0668H50.5241V62.6C50.5238 63.3957 50.7233 64.1788 51.1042 64.8774H47.0608V57.9252C47.0609 57.467 46.939 57.017 46.7076 56.6215C46.4761 56.226 46.1435 55.8993 45.7439 55.675C44.2304 54.8311 43.2523 53.8626 43.2523 53.209V45.1444ZM50.5241 56.164V57.8853H49.7809C49.7616 57.8853 49.7425 57.8815 49.7246 57.8741C49.7068 57.8667 49.6906 57.8559 49.6769 57.8422C49.6633 57.8286 49.6525 57.8124 49.6451 57.7945C49.6377 57.7767 49.6339 57.7576 49.6339 57.7383V56.3111C49.6339 56.2918 49.6377 56.2726 49.6451 56.2548C49.6525 56.237 49.6633 56.2207 49.6769 56.2071C49.6906 56.1934 49.7068 56.1826 49.7246 56.1752C49.7425 56.1678 49.7616 56.164 49.7809 56.164H50.5241ZM39.6195 44.1008C40.1075 44.2138 40.5913 44.3368 41.0707 44.47V50.6422H39.6195V44.1008ZM44.4141 24.6267C44.414 25.0083 44.2707 25.3759 44.0127 25.657C43.7547 25.9381 43.4007 26.1122 43.0205 26.145L43.0365 21.8762C43.4134 21.9124 43.7632 22.0876 44.0179 22.3677C44.2726 22.6478 44.4139 23.0127 44.4141 23.3913V24.6267ZM17.4573 24.6267V23.3913C17.4576 23.0127 17.5988 22.6478 17.8535 22.3677C18.1082 22.0876 18.4581 21.9124 18.835 21.8762L18.8509 26.145C18.4681 26.1157 18.1103 25.9431 17.8491 25.6617C17.5878 25.3803 17.4422 25.0107 17.4413 24.6267H17.4573ZM18.8254 19.4518V19.6899C18.3526 19.7082 17.8877 19.8167 17.4557 20.0095V17.8823C17.4559 16.5481 17.734 15.2284 18.2721 14.0075C18.8103 12.7866 19.5967 11.691 20.5814 10.7907C21.5661 9.89029 22.7275 9.20481 23.9916 8.77785C25.2558 8.35089 26.5949 8.1918 27.9239 8.31072C29.9174 8.49531 31.9237 8.49531 33.9172 8.31072C35.247 8.18993 36.5874 8.34757 37.853 8.77358C39.1185 9.1996 40.2814 9.88464 41.2675 10.785C42.2536 11.6854 43.0413 12.7814 43.5803 14.0031C44.1193 15.2248 44.3979 16.5454 44.3982 17.8807V20.0127C43.9668 19.8197 43.5024 19.7112 43.0301 19.6931V19.455C43.0306 19.1797 42.9271 18.9143 42.7405 18.712C42.5538 18.5096 42.2977 18.3851 42.0232 18.3634C41.9641 18.3634 36.0444 17.844 31.6909 13.4905C31.4862 13.2862 31.2089 13.1715 30.9197 13.1715C30.6306 13.1715 30.3533 13.2862 30.1486 13.4905C25.7967 17.844 19.8754 18.3586 19.8178 18.3634C19.5435 18.3843 19.2872 18.5081 19.1003 18.7099C18.9133 18.9117 18.8094 19.1767 18.8094 19.4518H18.8254ZM24.8618 35.9404C23.1197 34.6091 21.0437 32.2645 21.0437 28.6862L21.0117 20.4027C22.9295 20.0831 27.2447 19.0298 30.9365 15.7567C34.63 19.0298 38.9355 20.0815 40.8613 20.4027L40.8294 28.6894C40.8294 32.2709 38.7517 34.6027 37.0113 35.9404C34.8585 37.585 32.3589 38.3713 30.9381 38.4096C29.4965 38.3713 26.9986 37.585 24.8458 35.9404H24.8618ZM23.8006 43.7716L24.0099 43.7332C24.9313 43.5579 25.7643 43.0707 26.3688 42.3536C26.9733 41.6364 27.3125 40.733 27.3294 39.7953C28.6847 40.3131 29.9472 40.572 30.8934 40.5944H30.9413C31.8875 40.5752 33.15 40.3163 34.5037 39.7953C34.5211 40.662 34.8137 41.5007 35.3392 42.1903C35.8646 42.8798 36.5957 43.3843 37.4268 43.6309V45.023C35.5537 45.7374 33.206 46.1257 30.7256 46.1257C28.1684 46.1257 25.6784 45.6926 23.7814 44.9287L23.8006 43.7716ZM23.8006 47.2573C25.8175 47.9413 28.2228 48.3105 30.7447 48.3105C33.0151 48.3293 35.2751 48.0005 37.446 47.3356V50.6406H23.7846V47.2557L23.8006 47.2573ZM20.1535 44.6474C20.6329 44.5068 21.1124 44.3757 21.603 44.2526V50.6454H20.1535V44.6474ZM20.1535 53.209V52.9405C20.1535 52.9087 20.1661 52.8782 20.1886 52.8557C20.2111 52.8332 20.2415 52.8206 20.2733 52.8206H40.9429C40.9722 52.8207 41.0005 52.8315 41.0226 52.8509C41.0446 52.8703 41.0589 52.897 41.0627 52.9261V53.209C41.0627 55.1556 43.0253 56.6611 44.6715 57.58C44.7324 57.6147 44.783 57.6649 44.8181 57.7256C44.8533 57.7862 44.8716 57.8551 44.8712 57.9252V64.887H16.345V57.9252C16.3446 57.8551 16.3629 57.7862 16.398 57.7256C16.4332 57.6649 16.4838 57.6147 16.5447 57.58C18.1909 56.6611 20.1535 55.1556 20.1535 53.209ZM10.2718 52.7103C10.268 51.5761 10.58 50.4632 11.1727 49.4962C11.7655 48.5292 12.6156 47.7462 13.628 47.2349C15.0341 46.521 16.4832 45.8954 17.9671 45.3618V53.209C17.9671 53.8626 16.989 54.8311 15.4755 55.675C15.0759 55.8993 14.7433 56.226 14.5118 56.6215C14.2804 57.017 14.1585 57.467 14.1586 57.9252V64.8774H10.2718V52.7103ZM74.9989 71.6378H4.90664V67.0606H75.0037L74.9989 71.6378Z" fill="black"/>
  </g>
  <defs>
    <clipPath id="clip0_197_4186">
      <rect width="79.91" height="79.91" fill="white"/>
    </clipPath>
  </defs>
</svg>