<svg xmlns="http://www.w3.org/2000/svg" width="80" height="80" viewBox="0 0 80 80" fill="none">
  <g clip-path="url(#clip0_197_4277)">
    <path d="M44.4747 49.6145L63.7874 59.2708C64.9281 59.8413 65.9127 60.681 66.6559 61.7175C67.3992 62.7539 67.8787 63.9559 68.053 65.2193L68.5324 68.7242H9.95361L10.4331 65.2193C10.6079 63.9554 11.0881 62.7532 11.8322 61.7167C12.5763 60.6802 13.5618 59.8407 14.7035 59.2708L34.0161 49.6145H44.4747Z" fill="#EA9D2D"/>
    <path d="M14.7035 59.2708L16.2345 58.5068V68.7225H9.95361L10.4331 65.2177C10.608 63.954 11.0883 62.752 11.8324 61.7158C12.5765 60.6796 13.562 59.8403 14.7035 59.2708Z" fill="#EA9D2D"/>
    <path d="M68.5339 68.7225H62.2578V58.5068L63.7889 59.2708C64.9289 59.8417 65.9128 60.6817 66.6554 61.7181C67.3981 62.7545 67.8772 63.9562 68.0513 65.2193L68.5339 68.7225Z" fill="#EA9D2D"/>
    <path d="M52.6082 53.6803L39.244 64.5401L25.8799 53.6803L30.3804 51.4301L34.0131 49.6145H44.4749L48.7134 51.7337L52.6082 53.6803Z" fill="#EA9D2D"/>
    <path d="M46.5668 50.6629L44.4748 49.6177V45.4304H34.0129V49.6145L31.9209 50.6629L39.2439 53.8018L46.5668 50.6629Z" fill="#F6BB92"/>
    <path d="M44.475 45.4304V46.9519L44.4414 46.9743C42.9016 48.0171 41.0836 48.5726 39.2239 48.5686C37.3641 48.5646 35.5486 48.0013 34.0132 46.9519V45.4304H44.475Z" fill="#F6BB92"/>
    <path d="M44.475 45.4304V46.9519L44.4414 46.9743C42.9016 48.0171 41.0836 48.5726 39.2239 48.5686C37.3641 48.5646 35.5486 48.0013 34.0132 46.9519V45.4304H44.475Z" fill="#E6AF89"/>
    <path d="M16.2297 58.5068V68.7225H9.95361L10.4331 65.2177C10.608 63.954 11.0883 62.752 11.8324 61.7158C12.5765 60.6796 13.562 59.8403 14.7035 59.2708L16.2297 58.5068Z" fill="#CBCBCB"/>
    <path d="M68.5339 68.7225H62.2578V58.5068L63.7889 59.2708C64.9289 59.8417 65.9128 60.6817 66.6554 61.7181C67.3981 62.7545 67.8772 63.9562 68.0513 65.2193L68.5339 68.7225Z" fill="#CBCBCB"/>
    <path d="M39.244 47.5224C37.391 47.5226 35.5805 46.9673 34.0461 45.9283C32.5118 44.8894 31.324 43.4144 30.6361 41.6938C29.4116 38.6334 28.7824 35.3673 28.7822 32.071V23.7412C28.8162 20.9892 29.9334 18.3614 31.8915 16.4273C33.8496 14.4932 36.491 13.4087 39.2432 13.4087C41.9955 13.4087 44.6369 14.4932 46.595 16.4273C48.5531 18.3614 49.6702 20.9892 49.7043 23.7412V32.071C49.7046 35.3678 49.0759 38.6343 47.852 41.6954C47.1638 43.4157 45.976 44.8904 44.4416 45.929C42.9073 46.9677 41.0969 47.5227 39.244 47.5224Z" fill="#F6BB92"/>
    <path d="M45.5199 28.9722H42.3826C42.2418 28.9777 42.1014 28.9548 41.9697 28.9047C41.8379 28.8546 41.7177 28.7784 41.6161 28.6807C41.5146 28.5831 41.4338 28.4659 41.3786 28.3362C41.3234 28.2066 41.2949 28.0671 41.2949 27.9262C41.2949 27.7853 41.3234 27.6458 41.3786 27.5162C41.4338 27.3865 41.5146 27.2694 41.6161 27.1717C41.7177 27.074 41.8379 26.9978 41.9697 26.9478C42.1014 26.8977 42.2418 26.8747 42.3826 26.8802H45.5199C45.6607 26.8747 45.8012 26.8977 45.9329 26.9478C46.0646 26.9978 46.1848 27.074 46.2864 27.1717C46.388 27.2694 46.4688 27.3865 46.524 27.5162C46.5792 27.6458 46.6076 27.7853 46.6076 27.9262C46.6076 28.0671 46.5792 28.2066 46.524 28.3362C46.4688 28.4659 46.388 28.5831 46.2864 28.6807C46.1848 28.7784 46.0646 28.8546 45.9329 28.9047C45.8012 28.9548 45.6607 28.9777 45.5199 28.9722Z" fill="#683B0D"/>
    <path d="M43.6901 32.3539C44.4122 32.3539 44.9975 31.7686 44.9975 31.0466C44.9975 30.3246 44.4122 29.7393 43.6901 29.7393C42.9681 29.7393 42.3828 30.3246 42.3828 31.0466C42.3828 31.7686 42.9681 32.3539 43.6901 32.3539Z" fill="#683B0D"/>
    <path d="M36.1049 28.9722H32.9676C32.8268 28.9777 32.6863 28.9548 32.5546 28.9047C32.4229 28.8546 32.3027 28.7784 32.2011 28.6807C32.0995 28.5831 32.0187 28.4659 31.9635 28.3362C31.9083 28.2066 31.8799 28.0671 31.8799 27.9262C31.8799 27.7853 31.9083 27.6458 31.9635 27.5162C32.0187 27.3865 32.0995 27.2694 32.2011 27.1717C32.3027 27.074 32.4229 26.9978 32.5546 26.9478C32.6863 26.8977 32.8268 26.8747 32.9676 26.8802H36.1049C36.2457 26.8747 36.3861 26.8977 36.5178 26.9478C36.6496 26.9978 36.7698 27.074 36.8714 27.1717C36.9729 27.2694 37.0537 27.3865 37.1089 27.5162C37.1641 27.6458 37.1926 27.7853 37.1926 27.9262C37.1926 28.0671 37.1641 28.2066 37.1089 28.3362C37.0537 28.4659 36.9729 28.5831 36.8714 28.6807C36.7698 28.7784 36.6496 28.8546 36.5178 28.9047C36.3861 28.9548 36.2457 28.9777 36.1049 28.9722Z" fill="#683B0D"/>
    <path d="M34.7976 32.3539C35.5196 32.3539 36.1049 31.7686 36.1049 31.0466C36.1049 30.3246 35.5196 29.7393 34.7976 29.7393C34.0755 29.7393 33.4902 30.3246 33.4902 31.0466C33.4902 31.7686 34.0755 32.3539 34.7976 32.3539Z" fill="#683B0D"/>
    <path d="M40.2905 37.3403H38.1969C37.9197 37.3403 37.6538 37.2302 37.4578 37.0342C37.2618 36.8382 37.1517 36.5723 37.1517 36.2951V34.4827C37.1462 34.3419 37.1692 34.2015 37.2192 34.0698C37.2693 33.938 37.3455 33.8178 37.4432 33.7162C37.5408 33.6147 37.658 33.5339 37.7877 33.4787C37.9173 33.4235 38.0568 33.395 38.1977 33.395C38.3386 33.395 38.4781 33.4235 38.6077 33.4787C38.7374 33.5339 38.8546 33.6147 38.9522 33.7162C39.0499 33.8178 39.1261 33.938 39.1762 34.0698C39.2262 34.2015 39.2492 34.3419 39.2437 34.4827V35.2483H40.2905C40.5609 35.2588 40.8166 35.3737 41.0042 35.5687C41.1917 35.7637 41.2965 36.0237 41.2965 36.2943C41.2965 36.5648 41.1917 36.8249 41.0042 37.0199C40.8166 37.2149 40.5609 37.3297 40.2905 37.3403Z" fill="#E6AF89"/>
    <path d="M29.1754 27.6489H27.3375C26.6109 27.6489 25.9142 27.9375 25.4005 28.4513C24.8867 28.965 24.5981 29.6617 24.5981 30.3882V32.2326C24.5981 32.5923 24.669 32.9485 24.8067 33.2809C24.9443 33.6132 25.1461 33.9152 25.4005 34.1696C25.6548 34.4239 25.9568 34.6257 26.2892 34.7634C26.6215 34.901 26.9777 34.9719 27.3375 34.9719H29.3064L29.1754 27.6489Z" fill="#F6BB92"/>
    <path d="M49.3127 27.6489H51.1506C51.877 27.6493 52.5735 27.9381 53.0871 28.4517C53.6008 28.9653 53.8895 29.6619 53.8899 30.3882V32.2326C53.8899 32.5923 53.8191 32.9485 53.6814 33.2809C53.5438 33.6132 53.342 33.9152 53.0876 34.1696C52.8332 34.4239 52.5313 34.6257 52.1989 34.7634C51.8666 34.901 51.5104 34.9719 51.1506 34.9719H49.1816L49.3127 27.6489Z" fill="#F6BB92"/>
    <path d="M38.1973 36.2952H40.2909C40.8404 36.2952 41.3845 36.4034 41.8921 36.6137C42.3997 36.8239 42.861 37.1321 43.2495 37.5207C43.638 37.9092 43.9462 38.3704 44.1565 38.8781C44.3668 39.3857 44.475 39.9298 44.475 40.4793H34.0132C34.0132 39.9298 34.1214 39.3857 34.3317 38.8781C34.5419 38.3704 34.8501 37.9092 35.2387 37.5207C35.6272 37.1321 36.0885 36.8239 36.5961 36.6137C37.1037 36.4034 37.6478 36.2952 38.1973 36.2952Z" fill="#683B0D"/>
    <path d="M49.7043 28.972L49.5749 28.4462C48.9862 26.0907 47.5406 24.0393 45.5202 22.6927L45.4947 22.7023C42.0552 24.0796 38.3862 24.7937 34.6812 24.8071L30.2063 24.8215C29.1549 24.8254 28.1233 24.5359 27.2275 23.9857C26.3316 23.4354 25.607 22.6461 25.1352 21.7066L25.0329 21.5036C24.5785 20.5971 24.3808 19.5835 24.4614 18.5727C24.542 17.5619 24.8977 16.5924 25.49 15.7693L25.5715 15.6622C26.5698 14.2762 27.8835 13.1475 29.4042 12.3694C30.9248 11.5913 32.6087 11.1861 34.3168 11.1873H37.9432C40.784 11.1884 43.5082 12.3174 45.517 14.3261H45.9406C46.7547 14.3235 47.5534 14.5484 48.2466 14.9753C48.9399 15.4023 49.5001 16.0144 49.8641 16.7426L49.9025 16.8225C51.1246 19.2601 51.4325 22.0549 50.7703 24.7L49.7043 28.972Z" fill="#683B0D"/>
    <path d="M35.0601 56.1703L39.2441 59.3092L43.4282 56.1703L39.2441 53.7986L35.0601 56.1703Z" fill="#CBCBCB"/>
    <path d="M52.6082 53.6802L39.244 64.54L25.8799 53.6802L30.3804 51.4299L39.244 59.3091L48.7134 51.7336L52.6082 53.6802Z" fill="#C38325"/>
    <path d="M32.968 48.8474L39.2441 53.8018L30.8759 60.3545L29.8291 51.7066L32.968 48.8474Z" fill="#EAEAE8"/>
    <path d="M45.5203 48.8474L39.2441 53.8018L47.6123 60.3545L48.6591 51.7066L45.5203 48.8474Z" fill="#EAEAE8"/>
    <path d="M42.3826 28.9722H45.5199C45.6607 28.9777 45.8012 28.9548 45.9329 28.9047C46.0646 28.8546 46.1848 28.7784 46.2864 28.6807C46.388 28.5831 46.4688 28.4659 46.524 28.3362C46.5792 28.2066 46.6076 28.0671 46.6076 27.9262C46.6076 27.7853 46.5792 27.6458 46.524 27.5162C46.4688 27.3865 46.388 27.2694 46.2864 27.1717C46.1848 27.074 46.0646 26.9978 45.9329 26.9478C45.8012 26.8977 45.6607 26.8747 45.5199 26.8802H42.3826C42.2418 26.8747 42.1014 26.8977 41.9697 26.9478C41.8379 26.9978 41.7177 27.074 41.6161 27.1717C41.5146 27.2694 41.4338 27.3865 41.3786 27.5162C41.3234 27.6458 41.2949 27.7853 41.2949 27.9262C41.2949 28.0671 41.3234 28.2066 41.3786 28.3362C41.4338 28.4659 41.5146 28.5831 41.6161 28.6807C41.7177 28.7784 41.8379 28.8546 41.9697 28.9047C42.1014 28.9548 42.2418 28.9777 42.3826 28.9722Z" fill="black"/>
    <path d="M43.6901 32.3539C44.4122 32.3539 44.9975 31.7686 44.9975 31.0466C44.9975 30.3246 44.4122 29.7393 43.6901 29.7393C42.9681 29.7393 42.3828 30.3246 42.3828 31.0466C42.3828 31.7686 42.9681 32.3539 43.6901 32.3539Z" fill="black"/>
    <path d="M36.1049 28.9722C36.2457 28.9777 36.3861 28.9548 36.5178 28.9047C36.6496 28.8546 36.7698 28.7784 36.8714 28.6807C36.9729 28.5831 37.0537 28.4659 37.1089 28.3362C37.1641 28.2066 37.1926 28.0671 37.1926 27.9262C37.1926 27.7853 37.1641 27.6458 37.1089 27.5162C37.0537 27.3865 36.9729 27.2694 36.8714 27.1717C36.7698 27.074 36.6496 26.9978 36.5178 26.9478C36.3861 26.8977 36.2457 26.8747 36.1049 26.8802H32.9676C32.8268 26.8747 32.6863 26.8977 32.5546 26.9478C32.4229 26.9978 32.3027 27.074 32.2011 27.1717C32.0995 27.2694 32.0187 27.3865 31.9635 27.5162C31.9083 27.6458 31.8799 27.7853 31.8799 27.9262C31.8799 28.0671 31.9083 28.2066 31.9635 28.3362C32.0187 28.4659 32.0995 28.5831 32.2011 28.6807C32.3027 28.7784 32.4229 28.8546 32.5546 28.9047C32.6863 28.9548 32.8268 28.9777 32.9676 28.9722H36.1049Z" fill="black"/>
    <path d="M34.7976 32.3539C35.5196 32.3539 36.1049 31.7686 36.1049 31.0466C36.1049 30.3246 35.5196 29.7393 34.7976 29.7393C34.0755 29.7393 33.4902 30.3246 33.4902 31.0466C33.4902 31.7686 34.0755 32.3539 34.7976 32.3539Z" fill="black"/>
    <path d="M9.9537 69.7694H68.5341C68.6835 69.7694 68.8311 69.7374 68.967 69.6756C69.103 69.6138 69.2242 69.5237 69.3224 69.4112C69.4207 69.2987 69.4937 69.1665 69.5367 69.0235C69.5796 68.8805 69.5914 68.7299 69.5714 68.5819L69.0919 65.0771C68.8951 63.6445 68.3518 62.2816 67.509 61.1066C66.6663 59.9316 65.5496 58.98 64.2557 58.3343L49.2566 50.8355L46.2201 48.0754C46.0274 47.8997 45.776 47.8022 45.5153 47.8021V46.45C46.9903 45.3187 48.1317 43.8095 48.8187 42.0822C49.6007 40.1289 50.1505 38.0905 50.4569 36.009H51.1457C51.6428 36.009 52.1351 35.9111 52.5944 35.7208C53.0536 35.5305 53.4709 35.2516 53.8223 34.9C54.1738 34.5484 54.4525 34.131 54.6426 33.6716C54.8327 33.2123 54.9305 32.72 54.9302 32.2229V30.3849C54.9292 29.4202 54.5602 28.4923 53.8985 27.7903C53.2369 27.0882 52.3324 26.665 51.3695 26.6068C51.5021 26.081 51.6427 25.5168 51.7834 24.9542C52.5058 22.0667 52.1702 19.0158 50.8373 16.3543L50.7989 16.2744C50.3516 15.3724 49.6606 14.6137 48.8041 14.0843C47.9476 13.555 46.96 13.2761 45.9532 13.2794H45.9372C43.769 11.256 40.9118 10.1343 37.9462 10.1421H34.3135C32.4403 10.1442 30.5943 10.5907 28.9273 11.4451C27.2603 12.2994 25.8198 13.5372 24.7243 15.0566L24.6508 15.1589C23.9444 16.1359 23.5201 17.2883 23.4243 18.4901C23.3284 19.6919 23.5647 20.897 24.1074 21.9736L24.2096 22.1766C24.944 23.6546 26.2009 24.8074 27.7369 25.4113V26.6052H27.3373C26.3339 26.606 25.3717 27.005 24.6622 27.7146C23.9526 28.4241 23.5536 29.3863 23.5528 30.3897V32.234C23.5528 33.2378 23.9515 34.2004 24.6613 34.9101C25.371 35.6199 26.3336 36.0186 27.3373 36.0186H28.0261C28.3325 38.1001 28.8823 40.1385 29.6643 42.0917C30.3513 43.819 31.4928 45.3283 32.9678 46.4596V47.8117C32.707 47.8117 32.4556 47.9092 32.263 48.085L29.2264 50.8451L14.2241 58.3343C12.9315 58.9805 11.8159 59.9322 10.974 61.1069C10.1322 62.2815 9.5894 63.6437 9.39274 65.0755L8.91328 68.5787C8.89435 68.7148 8.90246 68.8534 8.93714 68.9863C8.97181 69.1193 9.03237 69.2442 9.11535 69.3537C9.19834 69.4633 9.30211 69.5554 9.42074 69.6248C9.53936 69.6942 9.67051 69.7395 9.80667 69.7582C9.85435 69.7646 9.9024 69.7678 9.95051 69.7678L9.9537 69.7694ZM50.751 32.071V29.1L50.8532 28.6924H51.1505C51.5994 28.6924 52.0299 28.8708 52.3473 29.1882C52.6647 29.5056 52.843 29.9361 52.843 30.3849V32.2293C52.843 32.6781 52.6647 33.1086 52.3473 33.426C52.0299 33.7434 51.5994 33.9217 51.1505 33.9217H50.687C50.7286 33.308 50.751 32.6911 50.751 32.071ZM63.3048 60.1994H63.3208C64.3108 60.6947 65.1649 61.4243 65.8089 62.3248C66.4528 63.2252 66.8671 64.2693 67.0158 65.3663L67.3355 67.6821H63.3048V60.1994ZM49.5187 53.3079L50.6902 53.8929L49.3126 55.0116L49.5187 53.3079ZM47.5562 52.1188L46.797 58.3886L40.9364 53.7986L45.4721 50.2202L47.5562 52.1188ZM43.4328 49.1638L39.2439 52.4673L35.0598 49.167V47.6902C36.3789 48.2689 37.8036 48.5676 39.2439 48.5676C40.6843 48.5676 42.109 48.2689 43.428 47.6902V49.0647C43.428 49.0967 43.4296 49.1286 43.4328 49.1622V49.1638ZM39.2439 55.1283L41.0387 56.5347L39.2807 57.9427L37.5818 56.4324L39.2439 55.1283ZM38.5487 60.0923C38.7333 60.2563 38.9699 60.3497 39.2167 60.3562C39.4635 60.3626 39.7047 60.2816 39.8976 60.1274L42.7312 57.8548L44.2974 59.0806L39.2439 63.1864L34.1904 59.0854L35.9069 57.7413L38.5487 60.0923ZM27.3373 33.9233C26.8883 33.9229 26.4578 33.7442 26.1405 33.4266C25.8231 33.1089 25.6448 32.6783 25.6448 32.2293V30.3849C25.6448 29.9359 25.8231 29.5053 26.1405 29.1876C26.4578 28.8699 26.8883 28.6913 27.3373 28.6908H27.7369V32.071C27.7369 32.6911 27.7582 33.3086 27.8008 33.9233H27.3373ZM26.0795 21.2384L25.9789 21.0339C25.608 20.2991 25.4463 19.4764 25.5114 18.6559C25.5765 17.8354 25.8659 17.0486 26.348 16.3815L26.4248 16.276C27.3257 15.026 28.5104 14.0077 29.8815 13.3048C31.2527 12.6019 32.7711 12.2344 34.3119 12.2326H37.9462C39.216 12.2292 40.4738 12.4778 41.6469 12.9639C42.8199 13.4501 43.8849 14.1641 44.7801 15.0646C44.9764 15.2608 45.2425 15.3711 45.52 15.3714H45.9564C46.5745 15.3692 47.181 15.5404 47.7067 15.8656C48.2325 16.1908 48.6565 16.6569 48.9306 17.211L48.9706 17.2893C50.0813 19.506 50.3608 22.0473 49.7585 24.4524L49.5012 25.4817C48.6681 24.016 47.5033 22.7659 46.1002 21.8314C45.9588 21.7371 45.7966 21.6787 45.6276 21.6611C45.4586 21.6436 45.2878 21.6675 45.1301 21.7307L45.1061 21.7403C41.7903 23.0674 38.2526 23.7529 34.6811 23.7604L30.2061 23.7764H30.1885C29.3343 23.7793 28.4963 23.5432 27.7693 23.0947C27.0423 22.6462 26.4553 22.0032 26.0747 21.2384H26.0795ZM31.6077 41.3054C30.4296 38.3694 29.8258 35.2346 29.8289 32.071V25.8572C29.9504 25.8572 30.0702 25.8684 30.1933 25.8684H30.2189L34.6938 25.8524C38.3463 25.843 41.9669 25.1733 45.381 23.8755C46.9618 25.0732 48.0853 26.7759 48.5646 28.7004L48.6653 29.1V32.071C48.6685 35.2346 48.0646 38.3694 46.8865 41.3054C46.2761 42.8316 45.2223 44.1399 43.8612 45.0615C42.5001 45.983 40.8941 46.4756 39.2503 46.4756C37.6066 46.4756 36.0005 45.983 34.6394 45.0615C33.2783 44.1399 32.2245 42.8316 31.6141 41.3054H31.6077ZM33.0157 50.2186L37.5578 53.7954L31.6972 58.387L30.9381 52.1173L33.0157 50.2186ZM28.9691 53.3063L29.1753 55.01L27.7976 53.8913L28.9691 53.3063ZM25.7439 54.9189L29.5364 58.0002L29.8353 60.4806C29.8581 60.6646 29.9292 60.8392 30.0415 60.9867C30.1537 61.1342 30.303 61.2493 30.4742 61.3202C30.6454 61.3912 30.8324 61.4156 31.0161 61.3907C31.1998 61.3659 31.3736 61.2929 31.5198 61.179L32.5011 60.4087L38.5839 65.3519C38.7703 65.5031 39.0031 65.5856 39.2431 65.5856C39.4832 65.5856 39.7159 65.5031 39.9024 65.3519L45.9851 60.4119L46.9664 61.1822C47.1127 61.2961 47.2865 61.3691 47.4701 61.3939C47.6538 61.4187 47.8408 61.3944 48.012 61.3234C48.1832 61.2524 48.3325 61.1373 48.4448 60.9899C48.557 60.8424 48.6281 60.6678 48.6509 60.4838L48.9514 58.0034L52.7407 54.9189L61.2208 59.1589C61.2133 59.2087 61.209 59.2589 61.208 59.3092V67.6773H17.2751V59.3092C17.2754 59.2589 17.2716 59.2086 17.2639 59.1589L25.7439 54.9189ZM11.472 65.3663C11.6214 64.2706 12.0361 63.2279 12.68 62.3288C13.324 61.4297 14.1777 60.7015 15.167 60.2073L15.183 60.1978V67.6773H11.1524L11.472 65.3663Z" fill="black"/>
    <path d="M44.4748 41.526C44.6122 41.526 44.7483 41.4989 44.8752 41.4463C45.0021 41.3937 45.1174 41.3165 45.2145 41.2193C45.3115 41.1221 45.3885 41.0067 45.4409 40.8797C45.4934 40.7527 45.5202 40.6166 45.52 40.4792C45.5188 39.0925 44.9675 37.763 43.9871 36.7823C43.0067 35.8017 41.6774 35.25 40.2907 35.2483H39.2439V34.4827C39.2494 34.3419 39.2264 34.2015 39.1763 34.0698C39.1263 33.938 39.0501 33.8178 38.9524 33.7162C38.8547 33.6147 38.7376 33.5339 38.6079 33.4787C38.4783 33.4235 38.3388 33.395 38.1979 33.395C38.057 33.395 37.9175 33.4235 37.7879 33.4787C37.6582 33.5339 37.541 33.6147 37.4433 33.7162C37.3457 33.8178 37.2695 33.938 37.2194 34.0698C37.1693 34.2015 37.1464 34.3419 37.1519 34.4827V35.3538C35.9713 35.5964 34.9105 36.2387 34.1483 37.1724C33.3861 38.106 32.9692 39.2739 32.9678 40.4792C32.9676 40.6166 32.9944 40.7527 33.0469 40.8797C33.0993 41.0067 33.1763 41.1221 33.2733 41.2193C33.3704 41.3165 33.4857 41.3937 33.6126 41.4463C33.7396 41.4989 33.8756 41.526 34.013 41.526H44.4748ZM38.1971 37.3403H40.2907C40.9394 37.3414 41.5718 37.5431 42.1014 37.9176C42.631 38.2921 43.0318 38.8212 43.249 39.4324H35.2388C35.456 38.8212 35.8569 38.2921 36.3864 37.9176C36.916 37.5431 37.5485 37.3414 38.1971 37.3403Z" fill="black"/>
  </g>
  <defs>
    <clipPath id="clip0_197_4277">
      <rect width="79.91" height="79.91" fill="white"/>
    </clipPath>
  </defs>
</svg>