<svg xmlns="http://www.w3.org/2000/svg" width="80" height="80" viewBox="0 0 80 80" fill="none">
  <path d="M40.3066 16.8626C41.0613 17.2196 41.8356 17.5339 42.6256 17.8039C42.6376 17.8281 42.6568 17.8477 42.6808 17.86C42.7046 17.8723 42.7317 17.8768 42.7583 17.8727C42.7786 17.8952 42.8032 17.9133 42.8307 17.9259C42.858 17.9385 42.8879 17.9454 42.9181 17.9462L43.7875 18.2962C44.5531 18.635 45.325 18.9546 46.1161 19.2359C46.3328 19.3671 46.5684 19.4642 46.8145 19.5236C47.0565 19.6622 47.3133 19.7731 47.58 19.8544C48.2465 20.1245 48.9002 20.4346 49.589 20.6535C49.9673 20.85 50.3606 21.0162 50.7653 21.1506C51.1402 21.3261 51.5244 21.4814 51.916 21.6157C52.7007 21.9784 53.5046 22.2837 54.3133 22.6081C54.9094 22.8591 55.5039 23.1355 56.1336 23.3369C56.1672 23.3992 56.2295 23.4024 56.2934 23.4136C56.3578 23.4681 56.4392 23.4985 56.5236 23.4999L57.8629 24.0593L58.2145 24.1856C58.1873 24.3837 57.9971 24.3709 57.8725 24.4221C57.2332 24.6922 56.5699 24.9271 55.9418 25.2356C55.7545 25.2768 55.5749 25.3476 55.4096 25.4449C54.9115 25.6175 54.4227 25.8165 53.9457 26.0411C53.2632 26.2872 52.5936 26.5637 51.9303 26.8593C51.1312 27.1582 50.3625 27.4555 49.5986 27.8183L48.4463 28.2785C48.0963 28.3989 47.7549 28.5437 47.425 28.7117C47.3967 28.7069 47.3678 28.7105 47.3416 28.7222C47.3154 28.7339 47.2933 28.7531 47.278 28.7772C46.8404 28.9073 46.4153 29.0757 46.0074 29.2806C45.6467 29.3989 45.2946 29.5426 44.9542 29.7105C43.7795 30.158 42.6176 30.6375 41.4589 31.1329C41.0608 31.2641 40.6739 31.4272 40.3018 31.6204C40.1246 31.7163 39.9264 31.7666 39.7249 31.7666C39.5234 31.7666 39.3252 31.7163 39.1479 31.6204C38.796 31.4348 38.428 31.2812 38.0484 31.1617C37.2637 30.8053 36.4598 30.4857 35.6655 30.1884C35.4304 30.0516 35.1761 29.9509 34.9111 29.8895C34.6931 29.7452 34.4536 29.6362 34.2015 29.5667C33.5271 29.295 32.8702 28.9706 32.175 28.7676C32.159 28.7443 32.1366 28.726 32.1106 28.715C32.0845 28.704 32.0559 28.7006 32.028 28.7053C31.6989 28.5386 31.3569 28.3991 31.0051 28.2881L29.8544 27.8263L27.4571 26.8322L25.1973 25.9148L24.7817 25.7278C24.6667 25.6767 24.6043 25.6943 24.6107 25.8397C24.6107 26.0475 24.6107 26.2568 24.6235 26.4678V27.6265C24.5708 28.5135 24.5708 28.5135 25.1637 28.7197H25.1909C25.2163 28.7468 25.247 28.7684 25.281 28.7833C25.3152 28.7981 25.3518 28.8058 25.389 28.806C25.445 28.8587 25.4993 28.9146 25.5584 28.9658C25.8135 29.1556 26.0192 29.404 26.1583 29.6899C26.2973 29.9757 26.3657 30.2908 26.3575 30.6087C26.3575 31.3055 26.0187 31.8297 25.5121 32.2677C25.2356 32.3364 25.1717 32.4866 25.2868 32.7471C25.3699 32.9737 25.4403 33.2047 25.4977 33.4391C25.5409 33.8321 25.6147 34.2211 25.7183 34.6026L25.8445 35.7645L25.9596 37.3883C25.935 37.6221 25.9425 37.8582 25.982 38.0899C25.942 38.5038 25.942 38.5038 25.5025 38.5054C25.3959 38.5034 25.2892 38.507 25.1829 38.5166H22.8655C22.4675 38.5726 22.6657 38.2513 22.5922 38.0947C22.6405 37.7078 22.656 37.3175 22.6385 36.928C22.6802 36.7322 22.6943 36.5315 22.6801 36.3319C22.725 36.2422 22.7343 36.1388 22.7057 36.0426C22.7503 35.9542 22.7632 35.8532 22.7424 35.7565L22.8655 34.593C22.9123 34.4831 22.9337 34.364 22.9278 34.2446C23.0876 33.7652 23.0876 33.2378 23.2922 32.7647C23.3945 32.5266 23.3993 32.3524 23.1132 32.2485C23.0202 32.198 22.9374 32.1308 22.8687 32.0503C22.2725 31.4542 22.1399 30.743 22.3029 29.9487C22.5379 29.4484 22.8303 29.0009 23.3529 28.7564C23.5527 28.6605 23.8676 28.6733 23.9491 28.4815C24.0306 28.2897 23.9746 28.0021 23.9762 27.7703C23.9783 27.7221 23.974 27.6736 23.9634 27.6265C23.9874 27.2391 23.9874 26.8504 23.9634 26.463C23.9634 26.2169 23.9746 25.9707 23.9762 25.7214C23.9762 25.3395 23.9555 25.3251 23.5559 25.3011C23.4554 25.1809 23.3133 25.1028 23.158 25.0821L22.7888 24.9383C22.7726 24.9118 22.7482 24.8915 22.7192 24.8805C22.6903 24.8694 22.6585 24.8685 22.6289 24.8776C22.3525 24.7333 22.0643 24.6124 21.7675 24.5164C21.6713 24.4846 21.5781 24.4438 21.4894 24.3949C21.3999 24.3358 21.2321 24.3662 21.2369 24.1967C21.3967 24.1589 21.549 24.0945 21.6876 24.0066L22.8623 23.5271L25.1925 22.5682C25.3603 22.5027 25.5313 22.4451 25.7007 22.37L27.5242 21.6045C27.916 21.4729 28.2995 21.3187 28.6733 21.1426C29.0786 21.0096 29.4721 20.8428 29.8496 20.6439C30.7926 20.3163 31.7115 19.9296 32.6305 19.5252C32.8764 19.4645 33.112 19.3668 33.3289 19.2359C34.128 18.9562 34.8919 18.6414 35.6543 18.2978L36.5269 17.9478C36.634 17.9142 36.757 17.9078 36.8306 17.8007C37.6169 17.5337 38.3875 17.2222 39.1384 16.8674C39.5242 16.794 39.9202 16.7924 40.3066 16.8626Z" fill="#327A6D" stroke="black" stroke-width="1.5982" stroke-miterlimit="10"/>
  <path d="M42.6334 34.0288C41.7096 34.3261 40.8274 34.6857 40.1562 35.432C39.958 35.6494 39.8877 35.9371 39.6959 36.18C39.4961 35.5231 39.0566 35.106 38.5276 34.7768C37.9978 34.4432 37.4215 34.1901 36.8176 34.0256C36.4383 33.9042 36.0504 33.8113 35.6573 33.7475C35.2082 33.7172 34.7735 33.5494 34.3164 33.5877C34.0683 33.5366 33.8142 33.522 33.562 33.5446C33.0389 33.4971 32.5117 33.5185 31.9942 33.6085C31.6598 33.6173 31.3271 33.6606 31.0017 33.7379C30.6033 33.7792 30.2122 33.8727 29.8382 34.016C29.7714 34.0259 29.7052 34.0397 29.64 34.0576C28.8673 34.298 28.1449 34.677 27.508 35.1763L27.4937 34.593V28.7835L27.5096 27.8566L28.6635 28.2929C29.0431 28.4794 29.435 28.6397 29.8366 28.7723L30.0108 28.8379C30.3293 29.0034 30.6621 29.1404 31.0049 29.247C31.3813 29.4346 31.7706 29.5948 32.17 29.7265C32.9243 30.0845 33.7043 30.3833 34.4858 30.6774C34.8609 30.8629 35.2499 31.0191 35.6493 31.1441C35.9657 31.3192 36.298 31.4643 36.6418 31.5772C37.0813 31.777 37.5335 31.932 37.9794 32.1046C38.1282 32.2089 38.2997 32.2769 38.4797 32.3028C38.8553 32.4942 39.2415 32.664 39.6368 32.811C39.6679 32.826 39.7021 32.8338 39.7367 32.8338C39.7712 32.8338 39.8054 32.826 39.8366 32.811C40.1818 32.6512 40.5573 32.5505 40.8866 32.3523C41.0932 32.3047 41.2904 32.2225 41.4699 32.1094C42.3729 31.7498 43.2759 31.3966 44.1757 31.0338C45.1681 30.6358 46.1526 30.2235 47.1403 29.816C47.1931 29.7968 47.2554 29.792 47.2842 29.7313C47.6597 29.6095 48.028 29.466 48.3869 29.3013C48.7449 29.1738 49.0946 29.0239 49.4337 28.8522L49.6079 28.7867C50.0121 28.6568 50.4058 28.4965 50.7858 28.3073L51.9317 27.871L51.9541 28.0963V34.5962L51.9413 35.1763C51.8566 35.1763 51.8183 35.09 51.7591 35.0453C51.1251 34.5573 50.3954 34.2083 49.6175 34.0208C49.2429 33.877 48.8514 33.7825 48.4524 33.7395C48.1267 33.6641 47.7941 33.6218 47.46 33.6133C46.9429 33.5239 46.4163 33.5028 45.8937 33.551C45.6417 33.5271 45.3874 33.5412 45.1394 33.5925C44.6807 33.5542 44.2476 33.7172 43.7985 33.7523C43.4039 33.8161 43.0146 33.9085 42.6334 34.0288Z" fill="#327A6D" stroke="black" stroke-width="1.5982" stroke-miterlimit="10"/>
  <path d="M40.3066 16.8626C41.0613 17.2196 41.8356 17.5339 42.6256 17.8039C42.6376 17.8281 42.6568 17.8477 42.6808 17.86C42.7046 17.8723 42.7317 17.8768 42.7583 17.8727C42.7786 17.8952 42.8032 17.9133 42.8307 17.9259C42.858 17.9385 42.8879 17.9454 42.9181 17.9462L43.7875 18.2962C44.5531 18.635 45.325 18.9546 46.1161 19.2359C46.3328 19.3671 46.5684 19.4642 46.8145 19.5236C47.0565 19.6622 47.3133 19.7731 47.58 19.8544C48.2465 20.1245 48.9002 20.4346 49.589 20.6535C49.9673 20.85 50.3606 21.0162 50.7653 21.1506C51.1402 21.3261 51.5244 21.4814 51.916 21.6157C52.7007 21.9784 53.5046 22.2837 54.3133 22.6081C54.9094 22.8591 55.5039 23.1355 56.1336 23.3369C56.1672 23.3992 56.2295 23.4024 56.2934 23.4136C56.3578 23.4681 56.4392 23.4985 56.5236 23.4999L57.8629 24.0593L58.2145 24.1856C58.1873 24.3837 57.9971 24.3709 57.8725 24.4221C57.2332 24.6922 56.5699 24.9271 55.9418 25.2356C55.7545 25.2768 55.5749 25.3476 55.4096 25.4449C54.9115 25.6175 54.4227 25.8165 53.9457 26.0411C53.2632 26.2872 52.5936 26.5637 51.9303 26.8593C51.1312 27.1582 50.3625 27.4555 49.5986 27.8183L48.4463 28.2785C48.0963 28.3989 47.7549 28.5437 47.425 28.7117C47.3967 28.7069 47.3678 28.7105 47.3416 28.7222C47.3154 28.7339 47.2933 28.7531 47.278 28.7772C46.8404 28.9073 46.4153 29.0757 46.0074 29.2806C45.6467 29.3989 45.2946 29.5426 44.9542 29.7105C43.7795 30.158 42.6176 30.6375 41.4589 31.1329C41.0608 31.2641 40.6739 31.4272 40.3018 31.6204C40.1246 31.7163 39.9264 31.7666 39.7249 31.7666C39.5234 31.7666 39.3252 31.7163 39.1479 31.6204C38.796 31.4348 38.428 31.2812 38.0484 31.1617C37.2637 30.8053 36.4598 30.4857 35.6655 30.1884C35.4304 30.0516 35.1761 29.9509 34.9111 29.8895C34.6931 29.7452 34.4536 29.6362 34.2015 29.5667C33.5271 29.295 32.8702 28.9706 32.175 28.7676C32.159 28.7443 32.1366 28.726 32.1106 28.715C32.0845 28.704 32.0559 28.7006 32.028 28.7053C31.6989 28.5386 31.3569 28.3991 31.0051 28.2881L29.8544 27.8263L27.4571 26.8322L25.1973 25.9148L24.7817 25.7278C24.6667 25.6767 24.6043 25.6943 24.6107 25.8397C24.6107 26.0475 24.6107 26.2568 24.6235 26.4678V27.6265C24.5708 28.5135 24.5708 28.5135 25.1637 28.7197H25.1909C25.2163 28.7468 25.247 28.7684 25.281 28.7833C25.3152 28.7981 25.3518 28.8058 25.389 28.806C25.445 28.8587 25.4993 28.9146 25.5584 28.9658C25.8135 29.1556 26.0192 29.404 26.1583 29.6899C26.2973 29.9757 26.3657 30.2908 26.3575 30.6087C26.3575 31.3055 26.0187 31.8297 25.5121 32.2677C25.2356 32.3364 25.1717 32.4866 25.2868 32.7471C25.3699 32.9737 25.4403 33.2047 25.4977 33.4391C25.5409 33.8321 25.6147 34.2211 25.7183 34.6026L25.8445 35.7645L25.9596 37.3883C25.935 37.6221 25.9425 37.8582 25.982 38.0899C25.942 38.5038 25.942 38.5038 25.5025 38.5054C25.3959 38.5034 25.2892 38.507 25.1829 38.5166H22.8655C22.4675 38.5726 22.6657 38.2513 22.5922 38.0947C22.6405 37.7078 22.656 37.3175 22.6385 36.928C22.6802 36.7322 22.6943 36.5315 22.6801 36.3319C22.725 36.2422 22.7343 36.1388 22.7057 36.0426C22.7503 35.9542 22.7632 35.8532 22.7424 35.7565L22.8655 34.593C22.9123 34.4831 22.9337 34.364 22.9278 34.2446C23.0876 33.7652 23.0876 33.2378 23.2922 32.7647C23.3945 32.5266 23.3993 32.3524 23.1132 32.2485C23.0202 32.198 22.9374 32.1308 22.8687 32.0503C22.2725 31.4542 22.1399 30.743 22.3029 29.9487C22.5379 29.4484 22.8303 29.0009 23.3529 28.7564C23.5527 28.6605 23.8676 28.6733 23.9491 28.4815C24.0306 28.2897 23.9746 28.0021 23.9762 27.7703C23.9783 27.7221 23.974 27.6736 23.9634 27.6265C23.9874 27.2391 23.9874 26.8504 23.9634 26.463C23.9634 26.2169 23.9746 25.9707 23.9762 25.7214C23.9762 25.3395 23.9555 25.3251 23.5559 25.3011C23.4554 25.1809 23.3133 25.1028 23.158 25.0821L22.7888 24.9383C22.7726 24.9118 22.7482 24.8915 22.7192 24.8805C22.6903 24.8694 22.6585 24.8685 22.6289 24.8776C22.3525 24.7333 22.0643 24.6124 21.7675 24.5164C21.6713 24.4846 21.5781 24.4438 21.4894 24.3949C21.3999 24.3358 21.2321 24.3662 21.2369 24.1967C21.3967 24.1589 21.549 24.0945 21.6876 24.0066L22.8623 23.5271L25.1925 22.5682C25.3603 22.5027 25.5313 22.4451 25.7007 22.37L27.5242 21.6045C27.916 21.4729 28.2995 21.3187 28.6733 21.1426C29.0786 21.0096 29.4721 20.8428 29.8496 20.6439C30.7926 20.3163 31.7115 19.9296 32.6305 19.5252C32.8764 19.4645 33.112 19.3668 33.3289 19.2359C34.128 18.9562 34.8919 18.6414 35.6543 18.2978L36.5269 17.9478C36.634 17.9142 36.757 17.9078 36.8306 17.8007C37.6169 17.5337 38.3875 17.2222 39.1384 16.8674C39.5242 16.794 39.9202 16.7924 40.3066 16.8626Z" fill="#327A6D"/>
  <path d="M42.6334 34.0288C41.7096 34.3261 40.8274 34.6857 40.1562 35.432C39.958 35.6494 39.8877 35.9371 39.6959 36.18C39.4961 35.5231 39.0566 35.106 38.5276 34.7768C37.9978 34.4432 37.4215 34.1901 36.8176 34.0256C36.4383 33.9042 36.0504 33.8113 35.6573 33.7475C35.2082 33.7172 34.7735 33.5494 34.3164 33.5877C34.0683 33.5366 33.8142 33.522 33.562 33.5446C33.0389 33.4971 32.5117 33.5185 31.9942 33.6085C31.6598 33.6173 31.3271 33.6606 31.0017 33.7379C30.6033 33.7792 30.2122 33.8727 29.8382 34.016C29.7714 34.0259 29.7052 34.0397 29.64 34.0576C28.8673 34.298 28.1449 34.677 27.508 35.1763L27.4937 34.593V28.7835L27.5096 27.8566L28.6635 28.2929C29.0431 28.4794 29.435 28.6397 29.8366 28.7723L30.0108 28.8379C30.3293 29.0034 30.6621 29.1404 31.0049 29.247C31.3813 29.4346 31.7706 29.5948 32.17 29.7265C32.9243 30.0845 33.7043 30.3833 34.4858 30.6774C34.8609 30.8629 35.2499 31.0191 35.6493 31.1441C35.9657 31.3192 36.298 31.4643 36.6418 31.5772C37.0813 31.777 37.5335 31.932 37.9794 32.1046C38.1282 32.2089 38.2997 32.2769 38.4797 32.3028C38.8553 32.4942 39.2415 32.664 39.6368 32.811C39.6679 32.826 39.7021 32.8338 39.7367 32.8338C39.7712 32.8338 39.8054 32.826 39.8366 32.811C40.1818 32.6512 40.5573 32.5505 40.8866 32.3523C41.0932 32.3047 41.2904 32.2225 41.4699 32.1094C42.3729 31.7498 43.2759 31.3966 44.1757 31.0338C45.1681 30.6358 46.1526 30.2235 47.1403 29.816C47.1931 29.7968 47.2554 29.792 47.2842 29.7313C47.6597 29.6095 48.028 29.466 48.3869 29.3013C48.7449 29.1738 49.0946 29.0239 49.4337 28.8522L49.6079 28.7867C50.0121 28.6568 50.4058 28.4965 50.7858 28.3073L51.9317 27.871L51.9541 28.0963V34.5962L51.9413 35.1763C51.8566 35.1763 51.8183 35.09 51.7591 35.0453C51.1251 34.5573 50.3954 34.2083 49.6175 34.0208C49.2429 33.877 48.8514 33.7825 48.4524 33.7395C48.1267 33.6641 47.7941 33.6218 47.46 33.6133C46.9429 33.5239 46.4163 33.5028 45.8937 33.551C45.6417 33.5271 45.3874 33.5412 45.1394 33.5925C44.6807 33.5542 44.2476 33.7172 43.7985 33.7523C43.4039 33.8161 43.0146 33.9085 42.6334 34.0288Z" fill="#327A6D"/>
  <path d="M26.6348 56.0344L28.2755 53.3936C28.7923 53.8132 29.2905 54.1577 29.77 54.4275C30.2569 54.6896 30.7364 54.8844 31.2083 55.0118C31.6804 55.1317 32.1636 55.1916 32.6581 55.1916C33.2424 55.1916 33.748 55.1092 34.1751 54.9444C34.6021 54.7796 34.9317 54.5436 35.1639 54.2364C35.4036 53.9294 35.5235 53.5734 35.5235 53.1689C35.5235 52.697 35.3737 52.2998 35.0741 51.9778C34.7744 51.6556 34.3811 51.3746 33.8941 51.1349C33.4146 50.8877 32.894 50.6518 32.3322 50.4269C31.7853 50.2022 31.2347 49.9588 30.6803 49.6965C30.1334 49.4269 29.6277 49.1084 29.1633 48.7414C28.7062 48.3743 28.3354 47.9286 28.0508 47.4041C27.7735 46.8722 27.6349 46.228 27.6349 45.4714C27.6349 44.4824 27.8822 43.6283 28.3766 42.9091C28.8785 42.1899 29.5639 41.6357 30.433 41.246C31.302 40.8566 32.2946 40.6617 33.411 40.6617C34.1976 40.6617 35.0141 40.7666 35.8607 40.9764C36.7148 41.1861 37.565 41.5045 38.4116 41.9315L37.0518 44.7296C36.52 44.4074 35.9468 44.1529 35.3325 43.9655C34.7181 43.7782 34.1414 43.6846 33.602 43.6846C33.115 43.6846 32.6879 43.7595 32.3208 43.9093C31.9612 44.0592 31.6804 44.2689 31.4781 44.5387C31.2758 44.8008 31.1746 45.1118 31.1746 45.4714C31.1746 45.8984 31.3208 46.2692 31.613 46.5839C31.9051 46.8909 32.2834 47.1643 32.7479 47.4041C33.2198 47.6438 33.7255 47.8835 34.2649 48.1233C34.8193 48.363 35.3774 48.6253 35.9393 48.9099C36.5088 49.1945 37.0256 49.5318 37.4901 49.9212C37.962 50.3034 38.3403 50.7641 38.6251 51.3035C38.9173 51.8354 39.0633 52.476 39.0633 53.225C39.0633 54.214 38.8011 55.0829 38.2767 55.8322C37.7523 56.5737 37.0218 57.1544 36.0854 57.5739C35.149 57.9859 34.0589 58.1919 32.8153 58.1919C31.6766 58.1919 30.5866 58.0084 29.5452 57.6413C28.504 57.2742 27.5338 56.7387 26.6348 56.0344ZM40.8613 56.3939L42.1873 53.8319C42.7867 54.2739 43.3746 54.6073 43.9516 54.832C44.5359 55.0567 45.1015 55.1691 45.6484 55.1691C46.1803 55.1691 46.6485 55.0679 47.053 54.8657C47.4651 54.6634 47.7873 54.3825 48.0195 54.0229C48.2517 53.6633 48.3679 53.2512 48.3679 52.7868C48.3679 52.0152 48.0494 51.4159 47.4126 50.9888C46.7759 50.5543 45.8881 50.3371 44.7494 50.3371H44.0302V47.9323H44.7494C45.3638 47.9323 45.9107 47.8349 46.3901 47.6401C46.8769 47.4378 47.2591 47.1643 47.5363 46.8198C47.8135 46.4677 47.952 46.0669 47.952 45.6174C47.952 45.2428 47.8509 44.9094 47.6487 44.6173C47.4539 44.3251 47.1841 44.0966 46.8395 43.9318C46.5025 43.767 46.1128 43.6846 45.6709 43.6846C45.2138 43.6846 44.7344 43.7819 44.2325 43.9767C43.7381 44.1716 43.2174 44.4674 42.6705 44.8645L41.1535 42.4597C41.8127 41.8828 42.5581 41.4409 43.3897 41.1337C44.2212 40.819 45.0903 40.6617 45.9968 40.6617C47.0081 40.6617 47.9033 40.8452 48.6824 41.2123C49.469 41.5794 50.0871 42.0851 50.5366 42.7293C50.9936 43.3737 51.2221 44.1153 51.2221 44.9543C51.2221 45.8684 50.9562 46.6849 50.4243 47.4041C49.8924 48.1233 49.1919 48.674 48.3228 49.056C49.4542 49.3707 50.3418 49.895 50.9861 50.6292C51.638 51.3635 51.9638 52.2549 51.9638 53.3037C51.9638 54.2402 51.7016 55.0793 51.1772 55.8208C50.6602 56.555 49.9523 57.1357 49.0534 57.5627C48.1544 57.9822 47.1317 58.1919 45.9855 58.1919C45.0416 58.1919 44.1314 58.0383 43.2548 57.7313C42.3783 57.4166 41.5805 56.9709 40.8613 56.3939Z" fill="#F8A23D"/>
  <path d="M26.635 56.0344L25.9563 55.6128L25.5781 56.2215L26.1423 56.6636L26.635 56.0344ZM28.2757 53.3937L28.7793 52.7733L28.0753 52.2019L27.597 52.9719L28.2757 53.3937ZM29.7702 54.4275L29.3785 55.124L29.3849 55.1276L29.3914 55.1311L29.7702 54.4275ZM31.2086 55.0118L31.0005 55.7833L31.0063 55.7849L31.012 55.7863L31.2086 55.0118ZM35.1641 54.2364L34.5343 53.7448L34.5304 53.7496L34.5268 53.7545L35.1641 54.2364ZM33.8944 51.1349L33.5282 51.8452L33.5348 51.8485L33.5415 51.8519L33.8944 51.1349ZM32.3324 50.4269L32.0286 51.1661L32.0321 51.1675L32.0357 51.169L32.3324 50.4269ZM30.6805 49.6966L30.327 50.4132L30.3329 50.4162L30.3388 50.4189L30.6805 49.6966ZM29.1635 48.7415L28.663 49.3644L28.6655 49.3664L28.6679 49.3683L29.1635 48.7415ZM28.051 47.4041L27.3424 47.7734L27.3454 47.7795L27.3486 47.7854L28.051 47.4041ZM28.3769 42.9092L27.7216 42.4519L27.7199 42.4542L27.7183 42.4566L28.3769 42.9092ZM35.8609 40.9765L35.6687 41.7521L35.6703 41.7524L35.8609 40.9765ZM38.4118 41.9315L39.1305 42.2809L39.4746 41.5727L38.7717 41.2181L38.4118 41.9315ZM37.0521 44.7297L36.6381 45.4132L37.3877 45.8673L37.7708 45.0789L37.0521 44.7297ZM32.3211 43.9093L32.0192 43.1695L32.0165 43.1706L32.0138 43.1717L32.3211 43.9093ZM31.4784 44.5387L32.1111 45.0268L32.1144 45.0225L32.1176 45.0181L31.4784 44.5387ZM31.6132 46.5839L31.0277 47.1276L31.0309 47.1311L31.0342 47.1346L31.6132 46.5839ZM32.7481 47.4041L32.3817 48.1142L32.3839 48.1155L32.3863 48.1166L32.7481 47.4041ZM34.2651 48.1233L33.9407 48.8535L33.9444 48.8553L33.9481 48.8569L34.2651 48.1233ZM35.9396 48.9099L35.5784 49.6227L35.5803 49.6237L35.5822 49.6246L35.9396 48.9099ZM37.4903 49.9213L36.9768 50.5335L36.9821 50.538L36.9875 50.5425L37.4903 49.9213ZM38.6253 51.3035L37.9186 51.6766L37.9217 51.6823L37.9249 51.6882L38.6253 51.3035ZM38.2769 55.8322L38.9295 56.2934L38.9304 56.292L38.9316 56.2904L38.2769 55.8322ZM36.0857 57.5739L36.4075 58.3054L36.4099 58.3043L36.4123 58.3032L36.0857 57.5739ZM27.3138 56.4561L28.9545 53.8154L27.597 52.9719L25.9563 55.6128L27.3138 56.4561ZM27.7721 54.0141C28.3171 54.4565 28.8525 54.8281 29.3785 55.124L30.1621 53.731C29.7291 53.4875 29.2682 53.1699 28.7793 52.7733L27.7721 54.0141ZM29.3914 55.1311C29.9255 55.4187 30.4621 55.638 31.0005 55.7833L31.4168 54.2404C31.0114 54.1309 30.589 53.9607 30.1491 53.7239L29.3914 55.1311ZM31.012 55.7863C31.5492 55.9228 32.0985 55.9907 32.6583 55.9907V54.3925C32.2292 54.3925 31.8121 54.3406 31.4053 54.2374L31.012 55.7863ZM32.6583 55.9907C33.315 55.9907 33.9228 55.8985 34.463 55.69L33.8876 54.1988C33.5739 54.32 33.1702 54.3925 32.6583 54.3925V55.9907ZM34.463 55.69C35.0024 55.4817 35.4639 55.165 35.8016 54.7184L34.5268 53.7545C34.4 53.9222 34.2022 54.0775 33.8876 54.1988L34.463 55.69ZM35.7941 54.7282C36.148 54.2749 36.3228 53.7443 36.3228 53.169H34.7246C34.7246 53.4026 34.6599 53.5837 34.5343 53.7448L35.7941 54.7282ZM36.3228 53.169C36.3228 52.5111 36.1072 51.9149 35.6594 51.4335L34.4892 52.522C34.6407 52.6849 34.7246 52.8829 34.7246 53.169H36.3228ZM35.6594 51.4335C35.28 51.0256 34.8018 50.691 34.2474 50.418L33.5415 51.8519C33.9608 52.0584 34.2693 52.2855 34.4892 52.522L35.6594 51.4335ZM34.2607 50.4247C33.756 50.1645 33.2119 49.9181 32.6292 49.6851L32.0357 51.169C32.5766 51.3854 33.0738 51.6109 33.5282 51.8452L34.2607 50.4247ZM32.6361 49.6879C32.1025 49.4686 31.5645 49.2307 31.0222 48.9742L30.3388 50.4189C30.9052 50.6868 31.4685 50.936 32.0286 51.1661L32.6361 49.6879ZM31.0339 48.9799C30.5359 48.7343 30.078 48.4456 29.659 48.1145L28.6679 49.3683C29.1778 49.7713 29.7314 50.1194 30.327 50.4132L31.0339 48.9799ZM29.6639 48.1183C29.2911 47.819 28.9882 47.4559 28.7533 47.0229L27.3486 47.7854C27.683 48.4012 28.1218 48.9297 28.663 49.3644L29.6639 48.1183ZM28.7597 47.0349C28.5554 46.6429 28.4343 46.1322 28.4343 45.4714H26.8361C26.8361 46.3237 26.9922 47.1016 27.3424 47.7734L28.7597 47.0349ZM28.4343 45.4714C28.4343 44.6218 28.6443 43.9307 29.0354 43.3619L27.7183 42.4566C27.1204 43.3261 26.8361 44.3431 26.8361 45.4714H28.4343ZM29.0322 43.3666C29.4442 42.7762 30.0115 42.311 30.7601 41.9753L30.1065 40.517C29.117 40.9605 28.3134 41.6039 27.7216 42.4519L29.0322 43.3666ZM30.7601 41.9753C31.5102 41.6391 32.3884 41.4609 33.4112 41.4609V39.8627C32.2014 39.8627 31.0945 40.074 30.1065 40.517L30.7601 41.9753ZM33.4112 41.4609C34.1264 41.4609 34.8784 41.5561 35.6687 41.7521L36.053 40.2007C35.1504 39.9771 34.2691 39.8627 33.4112 39.8627V41.4609ZM35.6703 41.7524C36.4614 41.9467 37.2551 42.243 38.0519 42.645L38.7717 41.2181C37.8755 40.766 36.9685 40.4256 36.0514 40.2004L35.6703 41.7524ZM37.6931 41.5823L36.3334 44.3805L37.7708 45.0789L39.1305 42.2809L37.6931 41.5823ZM37.466 44.0461C36.8756 43.6886 36.2415 43.4072 35.5658 43.2012L35.0997 44.7298C35.6527 44.8984 36.1648 45.1265 36.6381 45.4132L37.466 44.0461ZM35.5658 43.2012C34.8899 42.9951 34.234 42.8855 33.6022 42.8855V44.4837C34.0492 44.4837 34.5471 44.5614 35.0997 44.7298L35.5658 43.2012ZM33.6022 42.8855C33.0347 42.8855 32.5014 42.9728 32.0192 43.1695L32.6231 44.6491C32.8752 44.5464 33.1959 44.4837 33.6022 44.4837V42.8855ZM32.0138 43.1717C31.5432 43.3677 31.1395 43.6586 30.8391 44.0592L32.1176 45.0181C32.2217 44.8793 32.3799 44.7506 32.6284 44.647L32.0138 43.1717ZM30.8456 44.0506C30.526 44.4648 30.3758 44.9512 30.3758 45.4714H31.974C31.974 45.2723 32.0261 45.1369 32.1111 45.0268L30.8456 44.0506ZM30.3758 45.4714C30.3758 46.1012 30.599 46.666 31.0277 47.1276L32.1988 46.04C32.043 45.8724 31.974 45.6955 31.974 45.4714H30.3758ZM31.0342 47.1346C31.4002 47.5193 31.8557 47.8428 32.3817 48.1142L33.1146 46.694C32.7117 46.4861 32.4104 46.2627 32.1921 46.033L31.0342 47.1346ZM32.3863 48.1166C32.8718 48.3632 33.3901 48.6088 33.9407 48.8535L34.5897 47.3931C34.0615 47.1583 33.5685 46.9245 33.1101 46.6916L32.3863 48.1166ZM33.9481 48.8569C34.487 49.0899 35.0304 49.3451 35.5784 49.6227L36.3008 48.1971C35.7251 47.9055 35.1523 47.6363 34.5824 47.3899L33.9481 48.8569ZM35.5822 49.6246C36.0984 49.8829 36.5626 50.1861 36.9768 50.5335L38.0038 49.309C37.4892 48.8773 36.9194 48.5064 36.2969 48.1952L35.5822 49.6246ZM36.9875 50.5425C37.3751 50.856 37.6842 51.2323 37.9186 51.6766L39.3321 50.9305C38.9971 50.2959 38.5496 49.7507 37.9931 49.3002L36.9875 50.5425ZM37.9249 51.6882C38.1389 52.0777 38.2645 52.5792 38.2645 53.2251H39.8627C39.8627 52.3726 39.6961 51.5931 39.3257 50.9189L37.9249 51.6882ZM38.2645 53.2251C38.2645 54.0641 38.0449 54.7702 37.6223 55.3738L38.9316 56.2904C39.5577 55.3959 39.8627 54.3639 39.8627 53.2251H38.2645ZM37.6244 55.3708C37.193 55.981 36.5821 56.476 35.759 56.8447L36.4123 58.3032C37.4622 57.833 38.3121 57.1665 38.9295 56.2934L37.6244 55.3708ZM35.7638 56.8426C34.9482 57.2014 33.9717 57.3928 32.8156 57.3928V58.991C34.1467 58.991 35.3502 58.7707 36.4075 58.3054L35.7638 56.8426ZM32.8156 57.3928C31.7644 57.3928 30.7644 57.2238 29.8113 56.8877L29.2799 58.3951C30.4092 58.7932 31.5893 58.991 32.8156 58.991V57.3928ZM29.8113 56.8877C28.8546 56.5506 27.9607 56.0579 27.1279 55.4053L26.1423 56.6636C27.1073 57.4195 28.1538 57.9981 29.2799 58.3951L29.8113 56.8877ZM40.8616 56.394L40.1518 56.0267L39.851 56.608L40.3615 57.0174L40.8616 56.394ZM42.1876 53.8319L42.6618 53.1888L41.9082 52.6331L41.4778 53.4646L42.1876 53.8319ZM43.9518 54.8321L43.6618 55.5767L43.6634 55.5773L43.665 55.5779L43.9518 54.8321ZM47.0533 54.8658L46.7012 54.1485L46.6985 54.1498L46.6959 54.1511L47.0533 54.8658ZM47.4129 50.9889L46.9625 51.6489L46.9652 51.6508L46.9678 51.6526L47.4129 50.9889ZM44.0305 50.3371H43.2314V51.1362H44.0305V50.3371ZM44.0305 47.9323V47.1332H43.2314V47.9323H44.0305ZM46.3904 47.6402L46.6911 48.3804L46.694 48.3793L46.6969 48.378L46.3904 47.6402ZM47.5366 46.8198L48.1593 47.3207L48.1618 47.3175L48.1644 47.3141L47.5366 46.8198ZM47.6489 44.6173L46.9839 45.0605L46.9879 45.0664L46.9919 45.0722L47.6489 44.6173ZM46.8398 43.9318L46.4888 44.6498L46.4918 44.6512L46.495 44.6526L46.8398 43.9318ZM44.2328 43.9768L43.9437 43.2318L43.9418 43.2325L43.9398 43.2333L44.2328 43.9768ZM42.6707 44.8646L41.9948 45.2908L42.45 46.0122L43.1403 45.5112L42.6707 44.8646ZM41.1537 42.4597L40.6274 41.8583L40.1133 42.3082L40.4778 42.8861L41.1537 42.4597ZM43.3899 41.1337L43.6669 41.8833L43.6698 41.8822L43.6728 41.881L43.3899 41.1337ZM48.6827 41.2124L48.3421 41.9352L48.3435 41.9359L48.3448 41.9365L48.6827 41.2124ZM50.5369 42.7294L49.8815 43.1866L49.8832 43.1892L49.8851 43.1917L50.5369 42.7294ZM48.3231 49.056L48.0015 48.3245L45.9515 49.2259L48.1091 49.8258L48.3231 49.056ZM50.9863 50.6293L50.3857 51.1564L50.3873 51.1581L50.3887 51.1599L50.9863 50.6293ZM51.1775 55.8209L50.5249 55.3596L50.5239 55.3609L51.1775 55.8209ZM49.0536 57.5627L49.3915 58.2869L49.394 58.2858L49.3964 58.2845L49.0536 57.5627ZM43.255 57.7313L42.9851 58.4835L42.988 58.4844L42.9908 58.4854L43.255 57.7313ZM41.5712 56.7614L42.8972 54.1992L41.4778 53.4646L40.1518 56.0267L41.5712 56.7614ZM41.7132 54.475C42.3581 54.9506 43.0076 55.3217 43.6618 55.5767L44.2419 54.0875C43.7423 53.8928 43.2155 53.5971 42.6618 53.1888L41.7132 54.475ZM43.665 55.5779C44.3277 55.8328 44.9905 55.9682 45.6486 55.9682V54.37C45.213 54.37 44.7445 54.2808 44.2387 54.0862L43.665 55.5779ZM45.6486 55.9682C46.2828 55.9682 46.8772 55.8472 47.4107 55.5805L46.6959 54.1511C46.4203 54.2888 46.0782 54.37 45.6486 54.37V55.9682ZM47.4054 55.583C47.9379 55.3217 48.3744 54.9466 48.691 54.4565L47.3485 53.5895C47.2005 53.8183 46.9929 54.0053 46.7012 54.1485L47.4054 55.583ZM48.691 54.4565C49.0138 53.9567 49.1672 53.3914 49.1672 52.7868H47.569C47.569 53.1111 47.4901 53.37 47.3485 53.5895L48.691 54.4565ZM49.1672 52.7868C49.1672 51.7509 48.7177 50.9018 47.858 50.3251L46.9678 51.6526C47.3816 51.93 47.569 52.2796 47.569 52.7868H49.1672ZM47.8633 50.3288C47.0443 49.7701 45.9766 49.538 44.7497 49.538V51.1362C45.8001 51.1362 46.5078 51.3387 46.9625 51.6489L47.8633 50.3288ZM44.7497 49.538H44.0305V51.1362H44.7497V49.538ZM44.8296 50.3371V47.9323H43.2314V50.3371H44.8296ZM44.0305 48.7314H44.7497V47.1332H44.0305V48.7314ZM44.7497 48.7314C45.4482 48.7314 46.1 48.6206 46.6911 48.3804L46.0896 46.8999C45.7217 47.0493 45.2798 47.1332 44.7497 47.1332V48.7314ZM46.6969 48.378C47.2836 48.1343 47.7834 47.7878 48.1593 47.3207L46.9138 46.3189C46.7353 46.5411 46.4709 46.7413 46.0838 46.9021L46.6969 48.378ZM48.1644 47.3141C48.5529 46.8206 48.7514 46.2456 48.7514 45.6175H47.1532C47.1532 45.8882 47.0746 46.1148 46.9087 46.3255L48.1644 47.3141ZM48.7514 45.6175C48.7514 45.0896 48.6058 44.5957 48.306 44.1625L46.9919 45.0722C47.0964 45.2232 47.1532 45.3961 47.1532 45.6175H48.7514ZM48.3138 44.174C48.0324 43.7517 47.6472 43.4321 47.1845 43.2109L46.495 44.6526C46.7217 44.7612 46.8759 44.8984 46.9839 45.0605L48.3138 44.174ZM47.1907 43.2139C46.7266 42.987 46.2133 42.8855 45.6712 42.8855V44.4837C46.013 44.4837 46.2788 44.547 46.4888 44.6498L47.1907 43.2139ZM45.6712 42.8855C45.0993 42.8855 44.5216 43.0074 43.9437 43.2318L44.5217 44.7217C44.9477 44.5564 45.329 44.4837 45.6712 44.4837V42.8855ZM43.9398 43.2333C43.3685 43.4585 42.7887 43.7914 42.2013 44.2179L43.1403 45.5112C43.6466 45.1436 44.1081 44.8847 44.5256 44.7202L43.9398 43.2333ZM43.3466 44.4382L41.8296 42.0333L40.4778 42.8861L41.9948 45.2908L43.3466 44.4382ZM41.68 43.0611C42.2649 42.5492 42.9256 42.157 43.6669 41.8833L43.1131 40.3842C42.1911 40.7246 41.361 41.2165 40.6274 41.8583L41.68 43.0611ZM43.6728 41.881C44.4121 41.6014 45.1852 41.4609 45.997 41.4609V39.8627C44.9958 39.8627 44.0308 40.0369 43.1072 40.3864L43.6728 41.881ZM45.997 41.4609C46.9109 41.4609 47.6865 41.6264 48.3421 41.9352L49.0232 40.4895C48.1207 40.0642 47.1057 39.8627 45.997 39.8627V41.4609ZM48.3448 41.9365C49.0176 42.2505 49.5208 42.6696 49.8815 43.1866L51.1923 42.2721C50.654 41.5007 49.9209 40.9084 49.0207 40.4882L48.3448 41.9365ZM49.8851 43.1917C50.2401 43.6923 50.4233 44.27 50.4233 44.9544H52.0215C52.0215 43.9606 51.7477 43.0551 51.1886 42.2672L49.8851 43.1917ZM50.4233 44.9544C50.4233 45.7014 50.2099 46.3506 49.7821 46.929L51.067 47.8794C51.7029 47.0194 52.0215 46.0354 52.0215 44.9544H50.4233ZM49.7821 46.929C49.3381 47.5294 48.7512 47.995 48.0015 48.3245L48.6448 49.7875C49.6331 49.3529 50.4472 48.7173 51.067 47.8794L49.7821 46.929ZM48.1091 49.8258C49.1212 50.1075 49.8631 50.5607 50.3857 51.1564L51.5871 50.1022C50.8211 49.2294 49.7875 48.6339 48.5372 48.2861L48.1091 49.8258ZM50.3887 51.1599C50.9014 51.7371 51.165 52.4359 51.165 53.3037H52.7632C52.7632 52.0739 52.3748 50.9897 51.584 50.0988L50.3887 51.1599ZM51.165 53.3037C51.165 54.0804 50.9508 54.7573 50.5249 55.3596L51.8298 56.2823C52.4528 55.4013 52.7632 54.4001 52.7632 53.3037H51.165ZM50.5239 55.3609C50.0947 55.9706 49.4992 56.4664 48.7106 56.8408L49.3964 58.2845C50.406 57.805 51.2264 57.1395 51.8308 56.281L50.5239 55.3609ZM48.7156 56.8386C47.9377 57.2015 47.0333 57.3928 45.9857 57.3928V58.991C47.2307 58.991 48.3715 58.7628 49.3915 58.2869L48.7156 56.8386ZM45.9857 57.3928C45.1303 57.3928 44.3095 57.254 43.5194 56.9772L42.9908 58.4854C43.9536 58.8228 44.9533 58.991 45.9857 58.991V57.3928ZM43.5251 56.9792C42.731 56.6941 42.011 56.2915 41.3615 55.7707L40.3615 57.0174C41.1505 57.6502 42.0262 58.1392 42.9851 58.4835L43.5251 56.9792Z" fill="black"/>
</svg>