<svg xmlns="http://www.w3.org/2000/svg" width="80" height="80" viewBox="0 0 80 80" fill="none">
  <g clip-path="url(#clip0_197_4143)">
    <path d="M45.0899 6.47754H26.9727L22.5073 15.4083L26.0234 17.1663L29.4068 10.4011H42.6718L46.052 17.1631L49.568 15.4051L45.0899 6.47754Z" fill="#60474F"/>
    <path d="M46.0456 17.1631L49.5616 15.4051L45.0898 6.47754H36.0312V10.4011H42.6718L46.0456 17.1631Z" fill="#3F303A"/>
    <path d="M36.0315 23.3513H6.47754V53.6852H65.4511V23.3513H36.0315Z" fill="#60474F"/>
    <path d="M36.0312 23.3513H65.4541V53.6852H36.0312V23.3513Z" fill="#3F303A"/>
    <path d="M36.0315 14.3247H6.47754V23.3513L19.7426 32.1047H36.0315H52.3187L65.4543 23.3465V14.3247H36.0315Z" fill="#C47E4E"/>
    <path d="M65.4541 23.3513V14.3247H36.0312V32.1063H52.3185L65.4541 23.3513Z" fill="#9B5E34"/>
    <path d="M55.6479 37.9939C53.3295 37.9937 51.0338 38.4502 48.8918 39.3373C46.7499 40.2244 44.8037 41.5247 43.1643 43.1641C41.525 44.8034 40.2246 46.7496 39.3375 48.8916C38.4504 51.0335 37.9939 53.3292 37.9941 55.6476C37.9941 65.3966 45.8972 73.4324 55.6479 73.4324C65.3985 73.4324 73.4326 65.3966 73.4326 55.6476C73.4326 45.8986 65.3969 37.9939 55.6479 37.9939Z" fill="#FD697F"/>
    <path d="M73.4327 55.6476C73.4327 45.8986 65.397 37.9939 55.6479 37.9939V73.4324C65.397 73.4324 73.4327 65.3966 73.4327 55.6476Z" fill="#E6455D"/>
    <path d="M63.9665 50.1019L61.1936 47.3274L55.6479 52.8731L50.1021 47.3274L47.3276 50.1019L52.8734 55.6476L47.3276 61.1934L50.1021 63.9663L55.6479 58.4205L61.1936 63.9663L63.9665 61.1934L58.4207 55.6476L63.9665 50.1019Z" fill="#60474F"/>
    <path d="M63.9666 61.1934L58.4208 55.6476L63.9666 50.1019L61.1937 47.3274L55.6479 52.8731V58.4205L61.1937 63.9663L63.9666 61.1934Z" fill="#3F303A"/>
    <path d="M24.2624 37.994C22.7026 37.9915 21.2075 37.3706 20.1047 36.2675C19.0019 35.1645 18.3815 33.6692 18.3794 32.1094V26.2249H30.1485V32.1094C30.1468 33.6699 29.5261 35.1659 28.4226 36.2691C27.319 37.3724 25.8228 37.9927 24.2624 37.994Z" fill="#FFEA80"/>
    <path d="M47.8006 37.994C46.2406 37.9919 44.745 37.3712 43.6419 36.2681C42.5388 35.165 41.9181 33.6695 41.916 32.1094V26.2249H53.6852V32.1094C53.6835 33.6696 53.0629 35.1654 51.9597 36.2686C50.8565 37.3718 49.3608 37.9923 47.8006 37.994Z" fill="#FFC34D"/>
  </g>
  <defs>
    <clipPath id="clip0_197_4143">
      <rect width="79.91" height="79.91" fill="white"/>
    </clipPath>
  </defs>
</svg>