<svg xmlns="http://www.w3.org/2000/svg" width="80" height="80" viewBox="0 0 80 80" fill="none">
  <path d="M71.7944 13.7345H44.3253C42.9462 13.7345 41.8281 14.8525 41.8281 16.2317V71.1698C41.8281 72.549 42.9462 73.667 44.3253 73.667H71.7944C73.1735 73.667 74.2916 72.549 74.2916 71.1698V16.2317C74.2916 14.8525 73.1735 13.7345 71.7944 13.7345Z" fill="#A5C3DC"/>
  <path d="M69.2969 18.7289H74.2913V23.7233H69.2969V18.7289Z" fill="#D7E6F0"/>
  <path d="M66.8 6.24292H34.3365C32.9574 6.24292 31.8394 7.36095 31.8394 8.74011V71.1698C31.8394 72.549 32.9574 73.667 34.3365 73.667H66.8C68.1791 73.667 69.2972 72.549 69.2972 71.1698V8.74011C69.2972 7.36095 68.1791 6.24292 66.8 6.24292Z" fill="#353744"/>
  <path d="M56.8112 6.24292H34.3365C32.9574 6.24292 31.8394 7.36095 31.8394 8.74011V71.1698C31.8394 72.549 32.9574 73.667 34.3365 73.667H56.8112C58.1904 73.667 59.3084 72.549 59.3084 71.1698V8.74011C59.3084 7.36095 58.1904 6.24292 56.8112 6.24292Z" fill="#55525B"/>
  <path d="M56.8112 26.2205H24.3478C22.9686 26.2205 21.8506 27.3385 21.8506 28.7176V71.1698C21.8506 72.549 22.9686 73.667 24.3478 73.667H56.8112C58.1904 73.667 59.3084 72.549 59.3084 71.1698V28.7176C59.3084 27.3385 58.1904 26.2205 56.8112 26.2205Z" fill="#F5871E"/>
  <path d="M46.8225 26.2205H24.3478C22.9686 26.2205 21.8506 27.3385 21.8506 28.7176V71.1698C21.8506 72.549 22.9686 73.667 24.3478 73.667H46.8225C48.2016 73.667 49.3196 72.549 49.3196 71.1698V28.7176C49.3196 27.3385 48.2016 26.2205 46.8225 26.2205Z" fill="#FABE19"/>
  <path d="M49.3193 31.2148H59.3081V36.2092H49.3193V31.2148Z" fill="#D7E6F0"/>
  <path d="M49.3193 63.6782H59.3081V68.6726H49.3193V63.6782Z" fill="#D7E6F0"/>
  <path d="M66.7993 49.9437V19.9775C66.7993 19.2879 66.2403 18.7289 65.5507 18.7289H63.0535C62.364 18.7289 61.8049 19.2879 61.8049 19.9775V49.9437C61.8049 50.6333 62.364 51.1923 63.0535 51.1923H65.5507C66.2403 51.1923 66.7993 50.6333 66.7993 49.9437Z" fill="#55525B"/>
  <path d="M66.7993 67.424V57.4352C66.7993 56.7457 66.2403 56.1866 65.5507 56.1866H63.0535C62.364 56.1866 61.8049 56.7457 61.8049 57.4352V67.424C61.8049 68.1136 62.364 68.6726 63.0535 68.6726H65.5507C66.2403 68.6726 66.7993 68.1136 66.7993 67.424Z" fill="#55525B"/>
  <path d="M64.3024 16.2317C65.6815 16.2317 66.7996 15.1137 66.7996 13.7345C66.7996 12.3553 65.6815 11.2373 64.3024 11.2373C62.9232 11.2373 61.8052 12.3553 61.8052 13.7345C61.8052 15.1137 62.9232 16.2317 64.3024 16.2317Z" fill="#55525B"/>
  <path d="M23.099 67.424C32.7531 67.424 40.5793 59.5978 40.5793 49.9437C40.5793 40.2896 32.7531 32.4634 23.099 32.4634C13.4449 32.4634 5.61865 40.2896 5.61865 49.9437C5.61865 59.5978 13.4449 67.424 23.099 67.424Z" fill="#F04B37"/>
  <path d="M26.6303 49.9437L32.3561 44.2178C32.8157 43.7478 33.0715 43.1154 33.0678 42.4579C33.0641 41.8005 32.8013 41.171 32.3364 40.7061C31.8715 40.2412 31.2421 39.9784 30.5846 39.9748C29.9272 39.9711 29.2948 40.2268 28.8247 40.6865L23.0988 46.4122L17.3729 40.6865C16.9029 40.2268 16.2705 39.9711 15.6131 39.9748C14.9556 39.9784 14.3262 40.2412 13.8613 40.7061C13.3964 41.171 13.1336 41.8005 13.1299 42.4579C13.1262 43.1154 13.382 43.7478 13.8416 44.2178L19.5674 49.9437L13.8416 55.6696C13.6055 55.9005 13.4175 56.176 13.2885 56.4801C13.1596 56.7842 13.0922 57.1108 13.0904 57.4411C13.0885 57.7714 13.1522 58.0987 13.2778 58.4042C13.4033 58.7097 13.5882 58.9873 13.8217 59.2208C14.0553 59.4544 14.3328 59.6393 14.6383 59.7648C14.9438 59.8904 15.2712 59.954 15.6015 59.9522C15.9318 59.9503 16.2584 59.883 16.5625 59.754C16.8666 59.6251 17.142 59.4371 17.3729 59.201L23.0988 53.4752L28.8247 59.201C29.2948 59.6606 29.9272 59.9164 30.5846 59.9127C31.2421 59.909 31.8715 59.6462 32.3364 59.1813C32.8013 58.7164 33.0641 58.0869 33.0678 57.4295C33.0715 56.7721 32.8157 56.1397 32.3561 55.6696L26.6303 49.9437Z" fill="#D7E6F0"/>
</svg>