<svg xmlns="http://www.w3.org/2000/svg" width="80" height="81" viewBox="0 0 80 81" fill="none">
  <path d="M6.24268 19.5486H76.1639V62.0008H6.24268V19.5486Z" fill="#D6D6D4"/>
  <path d="M6.24268 19.5486V25.7916C6.24268 27.1161 6.76887 28.3865 7.70549 29.3231C8.64212 30.2597 9.91246 30.7859 11.2371 30.7859C12.5616 30.7859 13.832 30.2597 14.7686 29.3231C15.7052 28.3865 16.2314 27.1161 16.2314 25.7916C16.2314 27.1161 16.7576 28.3865 17.6942 29.3231C18.6309 30.2597 19.9012 30.7859 21.2258 30.7859C22.5504 30.7859 23.8207 30.2597 24.7574 29.3231C25.694 28.3865 26.2202 27.1161 26.2202 25.7916C26.2202 27.1161 26.7464 28.3865 27.683 29.3231C28.6196 30.2597 29.89 30.7859 31.2146 30.7859C32.5391 30.7859 33.8095 30.2597 34.7461 29.3231C35.6827 28.3865 36.2089 27.1161 36.2089 25.7916C36.2089 27.1161 36.7351 28.3865 37.6717 29.3231C38.6084 30.2597 39.8787 30.7859 41.2033 30.7859C42.5279 30.7859 43.7982 30.2597 44.7349 29.3231C45.6715 28.3865 46.1977 27.1161 46.1977 25.7916C46.1977 27.1161 46.7239 28.3865 47.6605 29.3231C48.5971 30.2597 49.8675 30.7859 51.192 30.7859C52.5166 30.7859 53.787 30.2597 54.7236 29.3231C55.6602 28.3865 56.1864 27.1161 56.1864 25.7916C56.1864 27.1161 56.7126 28.3865 57.6492 29.3231C58.5859 30.2597 59.8562 30.7859 61.1808 30.7859C62.5054 30.7859 63.7757 30.2597 64.7124 29.3231C65.649 28.3865 66.1752 27.1161 66.1752 25.7916C66.1752 27.1161 66.7014 28.3865 67.638 29.3231C68.5746 30.2597 69.845 30.7859 71.1695 30.7859C72.4941 30.7859 73.7645 30.2597 74.7011 29.3231C75.6377 28.3865 76.1639 27.1161 76.1639 25.7916V19.5486H6.24268Z" fill="#CFCFCD"/>
  <path d="M11.2373 32.0347H49.9437V54.5094H11.2373V32.0347Z" fill="#4DB7E5"/>
  <path d="M54.938 32.0347H69.9211V62.0009H54.938V32.0347Z" fill="#4DB7E5"/>
  <path d="M54.938 32.0347H69.9211V34.5319H54.938V32.0347Z" fill="#4AAFDB"/>
  <path d="M56.1866 19.5486H66.1753L63.6781 4.56543H54.938L56.1866 19.5486Z" fill="#FFB531"/>
  <path d="M36.209 4.56543H46.1977V19.5486H36.209V4.56543Z" fill="#FFB531"/>
  <path d="M16.2314 19.5486H26.2202L27.4688 4.56543H18.7286L16.2314 19.5486Z" fill="#FFB531"/>
  <path d="M66.1754 19.5486H76.1642L72.4184 4.56543H63.6782L66.1754 19.5486Z" fill="#D75246"/>
  <path d="M46.1978 19.5486H56.1865L54.9379 4.56543H46.1978V19.5486Z" fill="#D75246"/>
  <path d="M26.2202 19.5486H36.209V4.56543H27.4688L26.2202 19.5486Z" fill="#D75246"/>
  <path d="M6.24268 19.5486H16.2314L18.7286 4.56543H9.98846L6.24268 19.5486Z" fill="#D75246"/>
  <path d="M56.1865 19.5486H66.1753V22.0458C66.1753 23.3704 65.6491 24.6407 64.7125 25.5773C63.7758 26.514 62.5055 27.0401 61.1809 27.0401C59.8563 27.0401 58.586 26.514 57.6493 25.5773C56.7127 24.6407 56.1865 23.3704 56.1865 22.0458V19.5486Z" fill="#FCAC1F"/>
  <path d="M36.209 19.5486H46.1977V22.0458C46.1977 23.3704 45.6715 24.6407 44.7349 25.5773C43.7983 26.514 42.528 27.0401 41.2034 27.0401C39.8788 27.0401 38.6084 26.514 37.6718 25.5773C36.7352 24.6407 36.209 23.3704 36.209 22.0458V19.5486Z" fill="#FCAC1F"/>
  <path d="M16.2314 19.5486H26.2202V22.0458C26.2202 23.3704 25.694 24.6407 24.7574 25.5773C23.8207 26.514 22.5504 27.0401 21.2258 27.0401C19.9012 27.0401 18.6309 26.514 17.6943 25.5773C16.7576 24.6407 16.2314 23.3704 16.2314 22.0458V19.5486Z" fill="#FCAC1F"/>
  <path d="M66.1753 19.5486H76.164V22.0458C76.164 23.3704 75.6379 24.6407 74.7012 25.5773C73.7646 26.514 72.4943 27.0401 71.1697 27.0401C69.8451 27.0401 68.5747 26.514 67.6381 25.5773C66.7015 24.6407 66.1753 23.3704 66.1753 22.0458V19.5486Z" fill="#CA4C41"/>
  <path d="M46.1978 19.5486H56.1865V22.0458C56.1865 23.3704 55.6603 24.6407 54.7237 25.5773C53.7871 26.514 52.5167 27.0401 51.1921 27.0401C49.8675 27.0401 48.5972 26.514 47.6606 25.5773C46.7239 24.6407 46.1978 23.3704 46.1978 22.0458V19.5486Z" fill="#CA4C41"/>
  <path d="M26.2202 19.5486H36.209V22.0458C36.209 23.3704 35.6828 24.6407 34.7461 25.5773C33.8095 26.514 32.5392 27.0401 31.2146 27.0401C29.89 27.0401 28.6197 26.514 27.683 25.5773C26.7464 24.6407 26.2202 23.3704 26.2202 22.0458V19.5486Z" fill="#CA4C41"/>
  <path d="M6.24268 19.5486H16.2314V22.0458C16.2314 23.3704 15.7052 24.6407 14.7686 25.5773C13.832 26.514 12.5616 27.0401 11.2371 27.0401C9.91246 27.0401 8.64212 26.514 7.70549 25.5773C6.76887 24.6407 6.24268 23.3704 6.24268 22.0458V19.5486Z" fill="#CA4C41"/>
  <path d="M6.24268 62.0007H76.1639V66.9951H6.24268V62.0007Z" fill="#E0E0DE"/>
  <path d="M11.2373 32.0347H49.9437V34.5319H11.2373V32.0347Z" fill="#4AAFDB"/>
  <path d="M34.9603 76.9838H14.9828V58.2549H6.24268V53.2605C6.24268 51.6048 6.90042 50.0169 8.0712 48.8461C9.24198 47.6753 10.8299 47.0176 12.4856 47.0176H37.4575C39.1133 47.0176 40.7012 47.6753 41.872 48.8461C43.0428 50.0169 43.7005 51.6048 43.7005 53.2605V58.2549H34.9603V76.9838Z" fill="#348FD9"/>
  <path d="M29.9658 43.272V47.0178L24.9714 52.0121L19.9771 47.0178V43.272H29.9658Z" fill="#FEC9A3"/>
  <path d="M29.9658 43.272V46.9304C28.4468 47.8056 26.7245 48.2663 24.9714 48.2663C23.2183 48.2663 21.496 47.8056 19.9771 46.9304V43.272H29.9658Z" fill="#FEC093"/>
  <path d="M6.24268 58.2551H14.9828V76.984H11.2371C9.91246 76.984 8.64212 76.4578 7.70549 75.5212C6.76887 74.5846 6.24268 73.3142 6.24268 71.9897V58.2551Z" fill="#FEB784"/>
  <path d="M34.9604 58.2551H43.7006V71.9897C43.7006 73.3142 43.1744 74.5846 42.2378 75.5212C41.3012 76.4578 40.0308 76.984 38.7062 76.984H34.9604V58.2551Z" fill="#FEB784"/>
  <path d="M14.9828 63.2495H6.24268V71.9897H14.9828L36.2089 76.984H38.7061C40.0307 76.984 41.301 76.4579 42.2377 75.5212C43.1743 74.5846 43.7005 73.3143 43.7005 71.9897V68.2439L14.9828 63.2495Z" fill="#FEC093"/>
  <path d="M34.9603 63.2495L6.24268 68.2439V71.9897C6.24268 73.3143 6.76887 74.5846 7.70549 75.5212C8.64212 76.4579 9.91246 76.984 11.2371 76.984H13.7342L34.9603 71.9897H43.7005V63.2495H34.9603Z" fill="#FEC9A3"/>
  <path d="M19.9771 53.2605L24.9714 52.012L19.9771 47.0176V53.2605Z" fill="#459DE6"/>
  <path d="M29.9661 47.0176L24.9717 52.012L29.9661 53.2605V47.0176Z" fill="#459DE6"/>
  <path d="M14.983 30.7859H16.2316V35.7803H14.983C14.3207 35.7803 13.6856 35.5172 13.2172 35.0489C12.7489 34.5805 12.4858 33.9454 12.4858 33.2831C12.4858 32.6208 12.7489 31.9856 13.2172 31.5173C13.6856 31.049 14.3207 30.7859 14.983 30.7859Z" fill="#FEC093"/>
  <path d="M34.9603 35.7803H33.7117V30.7859H34.9603C35.6226 30.7859 36.2578 31.049 36.7261 31.5173C37.1944 31.9856 37.4575 32.6208 37.4575 33.2831C37.4575 33.9454 37.1944 34.5806 36.7261 35.0489C36.2578 35.5172 35.6226 35.7803 34.9603 35.7803Z" fill="#FEC093"/>
  <path d="M19.9773 20.7971H29.966C31.2906 20.7971 32.561 21.3233 33.4976 22.2599C34.4342 23.1966 34.9604 24.4669 34.9604 25.7915V35.7802C34.9604 38.4294 33.908 40.9701 32.0348 42.8434C30.1615 44.7166 27.6208 45.769 24.9717 45.769C22.3225 45.769 19.7818 44.7166 17.9085 42.8434C16.0353 40.9701 14.9829 38.4294 14.9829 35.7802V25.7915C14.9829 24.4669 15.5091 23.1966 16.4457 22.2599C17.3824 21.3233 18.6527 20.7971 19.9773 20.7971Z" fill="#FEC9A3"/>
  <path d="M14.9829 32.0345L18.7287 25.7915H31.2146L34.9604 32.0345V25.7915C34.9604 24.4669 34.4342 23.1966 33.4976 22.2599C32.561 21.3233 31.2906 20.7971 29.966 20.7971H19.9773C18.6527 20.7971 17.3824 21.3233 16.4457 22.2599C15.5091 23.1966 14.9829 24.4669 14.9829 25.7915V32.0345Z" fill="#804A32"/>
  <path d="M36.209 18.3H19.9773C18.6527 18.3 17.3824 18.8262 16.4457 19.7629C15.5091 20.6995 14.9829 21.9698 14.9829 23.2944V32.0346L18.7287 25.7916H32.4632C33.4567 25.7916 34.4094 25.397 35.1119 24.6945C35.8144 23.992 36.209 23.0393 36.209 22.0458V18.3Z" fill="#92563A"/>
  <path d="M63.6782 50.7634H66.1754V53.2606H63.6782V50.7634Z" fill="#4AAFDB"/>
  <path d="M77.4126 66.9952V55.7578H74.9154V60.7522H71.1696V32.0346C71.1696 31.7034 71.0381 31.3858 70.8039 31.1517C70.5697 30.9175 70.2522 30.786 69.921 30.786H54.9379C54.6067 30.786 54.2892 30.9175 54.055 31.1517C53.8208 31.3858 53.6893 31.7034 53.6893 32.0346V60.7522H47.4463V63.2494H74.9154V65.7466H47.4463V68.2438H76.164C76.4951 68.2438 76.8127 68.1122 77.0469 67.8781C77.281 67.6439 77.4126 67.3263 77.4126 66.9952ZM68.6724 60.7522H56.1865V33.2831H68.6724V60.7522ZM12.4857 43.2719H9.98852V38.2775H12.4857V43.2719ZM48.6949 53.2606V33.2831H41.2034V30.786H49.9435C50.2747 30.786 50.5922 30.9175 50.8264 31.1517C51.0606 31.3858 51.1921 31.7034 51.1921 32.0346V54.5092C51.1921 54.8404 51.0606 55.158 50.8264 55.3921C50.5922 55.6263 50.2747 55.7578 49.9435 55.7578H47.4463V53.2606H48.6949ZM73.6295 4.2627C73.562 3.99256 73.4061 3.75274 73.1866 3.58136C72.9671 3.40999 72.6967 3.3169 72.4182 3.31689H9.98852C9.71006 3.3169 9.43959 3.40999 9.22012 3.58136C9.00064 3.75274 8.84475 3.99256 8.77722 4.2627C8.77722 4.2627 5.03285 19.2401 5.03144 19.2458C5.00775 19.3413 4.99523 19.4392 4.99414 19.5375V45.7691H7.49133V27.0367C8.5704 27.8506 9.88553 28.2902 11.2371 28.2888V25.7916C10.244 25.7905 9.2919 25.3955 8.58967 24.6932C7.88745 23.991 7.49244 23.0389 7.49133 22.0458V20.7972H12.4857V18.3H7.84187L10.9634 5.81408H17.2547L15.6242 15.5976L18.0874 16.0081L19.7864 5.81408H26.1119L25.2886 15.6992L27.7771 15.9065L28.6177 5.81408H34.9604V14.5542H37.4576V5.81408H44.9491V18.3H39.9548V20.7972H44.9491V22.0458C44.9489 22.7032 44.7758 23.3489 44.4471 23.9182C44.1184 24.4875 43.6457 24.9603 43.0765 25.2891C42.5073 25.6179 41.8616 25.7912 41.2042 25.7916C40.5469 25.792 39.901 25.6194 39.3314 25.2912L38.0809 27.4527C39.4034 28.2162 40.9598 28.4683 42.4556 28.1614C43.9515 27.8545 45.2828 27.0098 46.1977 25.7872C46.7784 26.5637 47.5322 27.1942 48.3992 27.6284C49.2662 28.0627 50.2225 28.2888 51.1921 28.2888C52.1618 28.2888 53.1181 28.0627 53.985 27.6284C54.852 27.1942 55.6058 26.5637 56.1865 25.7872C56.7672 26.5637 57.521 27.1942 58.3879 27.6284C59.2549 28.0627 60.2112 28.2888 61.1809 28.2888C62.1505 28.2888 63.1068 28.0627 63.9738 27.6284C64.8408 27.1942 65.5945 26.5637 66.1752 25.7872C66.6663 26.4442 67.2822 26.9978 67.9876 27.4163C68.693 27.8348 69.474 28.1099 70.286 28.226C71.0979 28.3421 71.9248 28.2968 72.7192 28.0927C73.5136 27.8886 74.2599 27.5298 74.9154 27.0367V53.2606H77.4126C77.4126 53.2606 77.4126 19.5414 77.4126 19.5377C77.4118 19.4393 77.3995 19.3413 77.3759 19.2458L73.6295 4.2627ZM47.4463 5.81408H53.789L54.8296 18.3H47.4463V5.81408ZM54.9379 22.0458C54.9379 23.0392 54.5432 23.992 53.8408 24.6945C53.1383 25.3969 52.1856 25.7916 51.1921 25.7916C50.1987 25.7916 49.2459 25.3969 48.5434 24.6945C47.841 23.992 47.4463 23.0392 47.4463 22.0458V20.7972H54.9379V22.0458ZM56.2948 5.81408H62.6203L64.7013 18.3H57.3353L56.2948 5.81408ZM64.9266 22.0458C64.9266 23.0392 64.532 23.992 63.8295 24.6945C63.1271 25.3969 62.1743 25.7916 61.1809 25.7916C60.1874 25.7916 59.2347 25.3969 58.5322 24.6945C57.8297 23.992 57.4351 23.0392 57.4351 22.0458V20.7972H64.9266V22.0458ZM66.1924 12.0571L65.152 5.81408H71.4434L74.5648 18.3H67.2329L66.1924 12.0571ZM74.9154 22.0458C74.9154 23.0392 74.5207 23.992 73.8183 24.6945C73.1158 25.3969 72.163 25.7916 71.1696 25.7916C70.1762 25.7916 69.2234 25.3969 68.5209 24.6945C67.8185 23.992 67.4238 23.0392 67.4238 22.0458V20.7972H74.9154V22.0458ZM66.1752 50.7635H63.678V43.2719H66.1752V50.7635ZM7.59122 52.2605L5.14397 51.7636C5.04425 52.2564 4.99405 52.7579 4.99414 53.2606V71.9896C4.996 73.6447 5.65434 75.2316 6.82472 76.4019C7.9951 77.5723 9.58194 78.2307 11.2371 78.2325H38.7062C40.3613 78.2307 41.9482 77.5723 43.1186 76.4019C44.2889 75.2316 44.9473 73.6447 44.9491 71.9896V53.2606C44.9469 51.2745 44.1568 49.3703 42.7524 47.9658C41.348 46.5614 39.4438 45.7714 37.4576 45.7691H31.2146V45.1253C32.5729 44.2132 33.7167 43.0167 34.5667 41.6187C35.4168 40.2207 35.9527 38.6546 36.1375 37.0289H36.209C37.2024 37.0289 38.1552 36.6343 38.8577 35.9318C39.5601 35.2293 39.9548 34.2766 39.9548 33.2831C39.9548 32.2897 39.5601 31.3369 38.8577 30.6345C38.1552 29.932 37.2024 29.5374 36.209 29.5374C36.209 29.5374 36.2026 25.5053 36.1934 25.3625C37.0084 24.4501 37.4585 23.2692 37.4576 22.0458V18.3C37.4576 17.9689 37.326 17.6513 37.0919 17.4171C36.8577 17.183 36.5401 17.0514 36.209 17.0514H19.9773C18.3221 17.0533 16.7353 17.7116 15.5649 18.882C14.3945 20.0524 13.7362 21.6392 13.7343 23.2944V29.5374C12.7409 29.5374 11.7881 29.932 11.0856 30.6345C10.3832 31.3369 9.98852 32.2897 9.98852 33.2831C9.98852 34.2766 10.3832 35.2293 11.0856 35.9318C11.7881 36.6343 12.7409 37.0289 13.7343 37.0289H13.8058C13.9906 38.6546 14.5266 40.2206 15.3766 41.6186C16.2266 43.0166 17.3704 44.2131 18.7287 45.1253V45.7691H12.4857C11.322 45.7644 10.1734 46.033 9.13249 46.5533C8.09154 47.0736 7.18727 47.8309 6.49245 48.7645L8.4902 50.264C8.95343 49.6416 9.55626 49.1366 10.2502 48.7897C10.9442 48.4427 11.7098 48.2634 12.4857 48.2663H18.7287V53.2606C18.7287 53.4504 18.7719 53.6376 18.8551 53.8082C18.9383 53.9787 19.0593 54.128 19.2089 54.2448C19.3584 54.3615 19.5326 54.4427 19.7182 54.482C19.9038 54.5214 20.096 54.5179 20.28 54.4719L23.723 53.6112V63.5021L16.2315 62.1992V54.5092H13.7343V57.0064H7.49133V53.2606C7.49118 52.9248 7.52464 52.5897 7.59122 52.2605ZM36.209 32.0346C36.5401 32.0346 36.8577 32.1661 37.0919 32.4003C37.326 32.6344 37.4576 32.952 37.4576 33.2831C37.4576 33.6143 37.326 33.9319 37.0919 34.166C36.8577 34.4002 36.5401 34.5317 36.209 34.5317V32.0346ZM13.7343 34.5317C13.4031 34.5317 13.0856 34.4002 12.8514 34.166C12.6173 33.9319 12.4857 33.6143 12.4857 33.2831C12.4857 32.952 12.6173 32.6344 12.8514 32.4003C13.0856 32.1661 13.4031 32.0346 13.7343 32.0346V34.5317ZM38.7062 75.7353H36.354L30.4232 74.3399L35.1054 73.2381H42.238C41.979 73.968 41.5005 74.5999 40.8682 75.047C40.2358 75.4941 39.4806 75.7345 38.7062 75.7353ZM42.452 62.0008H36.209V59.5036H42.452V62.0008ZM37.4576 48.2663C38.7817 48.2678 40.0512 48.7944 40.9875 49.7307C41.9238 50.667 42.4505 51.9365 42.452 53.2606V57.0064H36.209V54.5092H33.7118V62.1992L26.2202 63.5021V53.6112L29.6632 54.4719C29.8473 54.5179 30.0394 54.5214 30.2251 54.482C30.4107 54.4427 30.5849 54.3615 30.7344 54.2448C30.884 54.128 31.0049 53.9787 31.0882 53.8082C31.1714 53.6376 31.2146 53.4504 31.2146 53.2606V48.2663H37.4576ZM27.4139 51.3356L28.7174 50.0319V51.6615L27.4139 51.3356ZM33.7118 27.5268L33.3695 26.9562C33.4849 26.935 33.5993 26.9113 33.7118 26.8821V27.5268ZM16.2315 25.7916V23.2944C16.2326 22.3013 16.6276 21.3492 17.3298 20.647C18.0321 19.9447 18.9842 19.5497 19.9773 19.5486H34.9604V22.0458C34.9596 22.7079 34.6963 23.3426 34.2281 23.8107C33.76 24.2789 33.1253 24.5422 32.4632 24.543H18.7287C18.5131 24.543 18.3011 24.5988 18.1135 24.7051C17.9259 24.8113 17.7689 24.9643 17.658 25.1492L16.2315 27.5268V25.7916ZM16.2315 35.7803V32.3804L19.4355 27.0402H30.5077L33.7118 32.3804V35.7803C33.7118 36.9281 33.4857 38.0646 33.0465 39.125C32.6073 40.1855 31.9635 41.149 31.1519 41.9606C30.3403 42.7722 29.3768 43.416 28.3164 43.8552C27.2559 44.2944 26.1194 44.5205 24.9716 44.5205C23.8239 44.5205 22.6873 44.2944 21.6269 43.8552C20.5665 43.416 19.603 42.7722 18.7914 41.9606C17.9798 41.149 17.336 40.1855 16.8968 39.125C16.4576 38.0646 16.2315 36.9281 16.2315 35.7803ZM21.2259 51.6615V50.0319L22.5294 51.3356L21.2259 51.6615ZM21.2259 46.5006V46.3757C23.6497 47.2315 26.2936 47.2315 28.7174 46.3757V46.5006L24.9716 50.2464L21.2259 46.5006ZM35.0681 64.498H42.452V70.741H34.9604C34.8641 70.7409 34.7681 70.7521 34.6743 70.7742L13.5895 75.7353H11.2371C10.244 75.7342 9.2919 75.3392 8.58967 74.637C7.88745 73.9348 7.49244 72.9827 7.49133 71.9896V69.294L35.0681 64.498ZM14.875 64.498L17.6844 64.9865L7.49133 66.7594V64.498H14.875ZM13.7343 59.5036V62.0008H7.49133V59.5036H13.7343ZM21.2259 57.0064V59.5036H18.7287V57.0064H21.2259ZM24.9716 40.6645C23.3914 40.6639 21.8468 40.1947 20.5332 39.3164L21.9185 37.2387C22.822 37.8433 23.8846 38.166 24.9716 38.166C26.0587 38.166 27.1213 37.8433 28.0248 37.2387L29.4101 39.3164C28.0964 40.1947 26.5519 40.6639 24.9716 40.6645ZM20.6016 34.5317C20.2311 34.5317 19.869 34.4219 19.561 34.2161C19.253 34.0103 19.013 33.7178 18.8712 33.3756C18.7295 33.0333 18.6924 32.6568 18.7647 32.2935C18.8369 31.9302 19.0153 31.5964 19.2772 31.3345C19.5392 31.0726 19.8729 30.8942 20.2362 30.8219C20.5995 30.7497 20.9761 30.7868 21.3183 30.9285C21.6605 31.0703 21.953 31.3103 22.1588 31.6183C22.3646 31.9263 22.4745 32.2884 22.4745 32.6588C22.4739 33.1554 22.2764 33.6315 21.9253 33.9826C21.5742 34.3337 21.0981 34.5312 20.6016 34.5317ZM27.4688 32.6588C27.4688 32.2884 27.5787 31.9263 27.7845 31.6183C27.9903 31.3103 28.2828 31.0703 28.625 30.9285C28.9672 30.7868 29.3438 30.7497 29.7071 30.8219C30.0704 30.8942 30.4041 31.0726 30.666 31.3345C30.928 31.5964 31.1064 31.9302 31.1786 32.2935C31.2509 32.6568 31.2138 33.0333 31.072 33.3756C30.9303 33.7178 30.6902 34.0103 30.3822 34.2161C30.0742 34.4219 29.7121 34.5317 29.3417 34.5317C28.8452 34.5312 28.3691 34.3337 28.018 33.9826C27.6669 33.6315 27.4694 33.1554 27.4688 32.6588Z" fill="black"/>
</svg>