<svg xmlns="http://www.w3.org/2000/svg" width="80" height="80" viewBox="0 0 80 80" fill="none">
    <g clip-path="url(#clip0_197_3457)">
    <path d="M55.6989 52.2516V26.5205C55.7261 22.1087 54.0684 17.8529 51.0641 14.6219C48.1985 11.5854 44.2382 9.69308 39.8655 9.69308C31.1186 9.69308 24.0273 17.227 24.0273 26.5205V52.2516H55.6989Z" fill="#525252"/>
    <path d="M52.7296 27.505V35.4241C52.7296 39.9934 49.4533 44.008 45.7998 46.2919C43.7717 47.5592 41.6285 48.2928 39.8609 48.2928C38.0933 48.2928 35.9501 47.5592 33.922 46.2919C33.6759 46.1384 33.4319 45.9786 33.19 45.8124C32.6249 45.4195 32.0842 44.9925 31.571 44.5338C28.9724 42.2053 26.9922 38.9881 26.9922 35.4353V27.505C26.9922 27.505 36.8914 23.5447 39.8609 20.5752C39.8609 20.5752 45.7998 25.5249 52.7296 27.505Z" fill="#FFDAAA"/>
    <path d="M69.5569 69.079H10.1646L12.4851 59.9693C12.98 58.2377 13.9379 56.6739 15.2556 55.4463C16.5733 54.2187 18.2009 53.3739 19.9631 53.0027L24.0225 52.2036L24.1104 52.1876L27.9829 51.4301V54.2269C27.9829 57.3771 29.2343 60.3983 31.4618 62.6258C33.6893 64.8533 36.7105 66.1048 39.8607 66.1048C43.0109 66.1048 46.0321 64.8533 48.2596 62.6258C50.4871 60.3983 51.7385 57.3771 51.7385 54.2269V51.4301L55.6989 52.2036L59.7583 53.0027C61.5205 53.3739 63.1482 54.2187 64.4659 55.4463C65.7836 56.6739 66.7414 58.2377 67.2363 59.9693L69.5569 69.079Z" fill="#ED1E79"/>
    <path d="M33.9216 33.4439C35.0152 33.4439 35.9017 32.5574 35.9017 31.4638C35.9017 30.3701 35.0152 29.4836 33.9216 29.4836C32.828 29.4836 31.9414 30.3701 31.9414 31.4638C31.9414 32.5574 32.828 33.4439 33.9216 33.4439Z" fill="#FFDAAA"/>
    <path d="M45.7995 33.4439C46.8931 33.4439 47.7797 32.5574 47.7797 31.4638C47.7797 30.3701 46.8931 29.4836 45.7995 29.4836C44.7059 29.4836 43.8193 30.3701 43.8193 31.4638C43.8193 32.5574 44.7059 33.4439 45.7995 33.4439Z" fill="#FFDAAA"/>
    <path d="M54.2142 37.4059H52.7295V29.4868H54.2142C54.5395 29.4868 54.8615 29.5509 55.162 29.6754C55.4624 29.7999 55.7354 29.9824 55.9653 30.2124C56.1952 30.4425 56.3775 30.7156 56.5018 31.0161C56.6262 31.3167 56.69 31.6388 56.6898 31.964V34.9335C56.689 35.5895 56.4278 36.2183 55.9636 36.6819C55.4994 37.1455 54.8702 37.4059 54.2142 37.4059Z" fill="#FFDAAA"/>
    <path d="M51.7386 51.4333V54.2301C51.7386 57.3803 50.4871 60.4015 48.2596 62.629C46.0321 64.8566 43.0109 66.108 39.8607 66.108C36.7105 66.108 33.6894 64.8566 31.4618 62.629C29.2343 60.4015 27.9829 57.3803 27.9829 54.2301V51.4333L33.9218 50.2714V46.2903C35.9499 47.5577 38.0947 48.2912 39.8607 48.2912C41.6267 48.2912 43.7715 47.5577 45.7996 46.2903V50.2714L51.7386 51.4333Z" fill="#FFDAAA"/>
    <path d="M70.5159 68.8345L68.1954 59.7248C68.1934 59.715 68.1908 59.7053 68.1874 59.696C67.6453 57.7903 66.5925 56.069 65.143 54.7183C63.6934 53.3677 61.9022 52.4389 59.963 52.0326H59.9486L56.6883 51.3933V37.3531C57.3241 36.7084 57.6801 35.839 57.6792 34.9335V31.964C57.6806 31.0565 57.3246 30.185 56.6883 29.5379V26.5142C56.6883 21.7675 54.9447 17.3005 51.7802 13.9379C48.6158 10.5753 44.3662 8.69742 39.8609 8.69742C30.5817 8.69742 23.0334 16.6884 23.0334 26.5142V51.3917L19.7731 52.031H19.7587C17.8195 52.4373 16.0283 53.3661 14.5787 54.7167C13.1292 56.0674 12.0764 57.7887 11.5344 59.6944C11.5344 59.704 11.5344 59.7136 11.5344 59.7232L9.21378 68.8329C9.17618 68.979 9.17256 69.1318 9.20318 69.2795C9.23381 69.4272 9.29787 69.566 9.39045 69.6851C9.48304 69.8042 9.60168 69.9006 9.73728 69.9667C9.87288 70.0329 10.0218 70.0671 10.1727 70.0667H69.557C69.7077 70.0664 69.8563 70.0318 69.9916 69.9655C70.1268 69.8992 70.2452 69.8028 70.3377 69.6839C70.4301 69.5649 70.4942 69.4264 70.5251 69.279C70.556 69.1315 70.5529 68.979 70.5159 68.8329V68.8345ZM55.7006 31.964V34.9335C55.7002 35.3271 55.5436 35.7045 55.2653 35.9829C54.9869 36.2612 54.6095 36.4178 54.2159 36.4182H53.7188V30.4793H54.2127C54.4079 30.4789 54.6014 30.517 54.7819 30.5914C54.9624 30.6658 55.1264 30.7751 55.2646 30.913C55.4028 31.0509 55.5125 31.2148 55.5873 31.3951C55.6621 31.5754 55.7006 31.7688 55.7006 31.964ZM34.9112 50.273V47.9668C36.6261 48.8106 38.3538 49.2821 39.8657 49.2821C41.3776 49.2821 43.102 48.8106 44.8201 47.9668V50.273C44.8208 50.5021 44.9008 50.7238 45.0465 50.9007C45.1921 51.0775 45.3945 51.1985 45.6192 51.2431L50.759 52.2468V54.2301C50.759 57.118 49.6118 59.8875 47.5698 61.9295C45.5278 63.9715 42.7583 65.1187 39.8704 65.1187C36.9826 65.1187 34.2131 63.9715 32.1711 61.9295C30.1291 59.8875 28.9819 57.118 28.9819 54.2301V52.2468L34.1217 51.2431C34.3446 51.1965 34.5448 51.0747 34.6885 50.8981C34.8323 50.7214 34.9109 50.5007 34.9112 50.273ZM32.2311 43.7907C28.5344 40.476 27.983 37.1294 27.983 35.4289V28.1108C31.1411 27.2525 37.3149 24.4077 39.8641 22.0696C42.4212 24.4061 48.579 27.2477 51.7387 28.1092V35.4241C51.7387 37.1246 51.1873 40.4712 47.4907 43.7859C45.1077 45.9211 42.1111 47.3019 39.8609 47.3019C37.6106 47.3019 34.614 45.9211 32.2311 43.7907ZM46.7907 49.4611V46.8273C49.717 44.8647 52.3108 41.8729 53.2969 38.4032H54.2159C54.3806 38.4029 54.5452 38.3906 54.7081 38.3664V51.0114L46.7907 49.4611ZM25.0136 26.5142C25.0136 17.7816 31.6733 10.6776 39.8609 10.6776C43.8148 10.6776 47.5322 12.3157 50.3387 15.2932C53.1451 18.2706 54.7081 22.2725 54.7081 26.5142V28.5343C54.5452 28.5101 54.3806 28.4978 54.2159 28.4975H53.7188V27.505C53.7205 27.4747 53.7205 27.4443 53.7188 27.4139C53.7411 27.1692 53.6717 26.925 53.524 26.7286C53.3764 26.5322 53.161 26.3977 52.9198 26.3511C51.5533 26.1002 48.814 25.039 46.2569 23.7684C43.4296 22.3652 41.3024 20.9412 40.7015 20.0526C40.6096 19.9188 40.4865 19.8094 40.3428 19.7337C40.1991 19.6581 40.0392 19.6186 39.8768 19.6186C39.7145 19.6186 39.5546 19.6581 39.4109 19.7337C39.2672 19.8094 39.1441 19.9188 39.0522 20.0526C38.4512 20.9412 36.324 22.3652 33.4968 23.7684C30.9397 25.039 28.1988 26.1002 26.8339 26.3511C26.5981 26.4403 26.3942 26.5976 26.2482 26.8031C26.1021 27.0087 26.0206 27.253 26.0141 27.505V35.4241C26.0141 40.1468 29.2105 44.3165 32.9438 46.8209V49.4563L25.0248 51.005L25.0136 26.5142ZM57.6776 68.0833V64.1294C57.6776 63.867 57.5734 63.6154 57.3878 63.4299C57.2023 63.2443 56.9507 63.1401 56.6883 63.1401C56.4259 63.1401 56.1743 63.2443 55.9888 63.4299C55.8032 63.6154 55.699 63.867 55.699 64.1294V68.0833H24.0227V64.1294C24.0227 63.867 23.9185 63.6154 23.7329 63.4299C23.5474 63.2443 23.2958 63.1401 23.0334 63.1401C22.771 63.1401 22.5194 63.2443 22.3339 63.4299C22.1484 63.6154 22.0441 63.867 22.0441 64.1294V68.0833H11.4385L13.441 60.2266C13.8857 58.671 14.7466 57.2663 15.9309 56.1639C17.1152 55.0616 18.578 54.3034 20.1614 53.9712L26.9922 52.6351V54.2333C27.0671 57.5958 28.4555 60.7953 30.8601 63.1469C33.2647 65.4985 36.4943 66.8152 39.8577 66.8152C43.221 66.8152 46.4507 65.4985 48.8552 63.1469C51.2598 60.7953 52.6482 57.5958 52.7232 54.2333V52.6351L59.5539 53.9712C61.1373 54.3034 62.6001 55.0616 63.7844 56.1639C64.9687 57.2663 65.8296 58.671 66.2743 60.2266L68.2832 68.0833H57.6776Z" fill="black"/>
    </g>
    <defs>
    <clipPath id="clip0_197_3457">
    <rect width="79.91" height="79.91" fill="white"/>
    </clipPath>
    </defs>
</svg>