<svg xmlns="http://www.w3.org/2000/svg" width="148" height="148" viewBox="0 0 148 148" fill="none">
  <path fill-rule="evenodd" clip-rule="evenodd" d="M67.8337 111C91.674 111 111 91.6737 111 67.8334C111 43.9931 91.674 24.6667 67.8337 24.6667C43.9934 24.6667 24.667 43.9931 24.667 67.8334C24.667 91.6737 43.9934 111 67.8337 111ZM67.8337 42.1667C64.4631 42.1667 61.1255 42.8306 58.0115 44.1205C54.8974 45.4104 52.068 47.301 49.6846 49.6843C47.3012 52.0677 45.4106 54.8972 44.1208 58.0112C42.8309 61.1252 42.167 64.4628 42.167 67.8334C42.167 68.3857 42.6147 68.8334 43.167 68.8334C43.7193 68.8334 44.167 68.3857 44.167 67.8334C44.167 64.7255 44.7792 61.6479 45.9685 58.7766C47.1579 55.9052 48.9011 53.2962 51.0988 51.0986C53.2965 48.9009 55.9054 47.1576 58.7768 45.9683C61.6482 44.7789 64.7257 44.1667 67.8337 44.1667C68.3859 44.1667 68.8337 43.719 68.8337 43.1667C68.8337 42.6145 68.3859 42.1667 67.8337 42.1667Z" fill="#222222"/>
  <path d="M123.333 123.333L111 111" stroke="#222222" stroke-width="20" stroke-linecap="round"/>
</svg>